<svg width="390" height="257" viewBox="0 0 390 257" fill="none" xmlns="http://www.w3.org/2000/svg">
    <g filter="url(#filter0_d_0_1)">
        <circle cx="70.9999" cy="50" r="14.5768" fill="#FBFDFF" />
    </g>
    <circle cx="71" cy="50" r="23.6677" fill="#FBFDFF" fill-opacity="0.25" />
    <circle cx="71.0001" cy="50" r="36.5204" fill="#FBFDFF" fill-opacity="0.25" />
    <circle cx="71" cy="50" r="50" fill="#FBFDFF" fill-opacity="0.25" />
    <g clip-path="url(#clip0_0_1)">
        <ellipse cx="29" cy="2.5" rx="29" ry="2.5" transform="matrix(-1 0 0 1 377 194)"
            fill="url(#paint0_radial_0_1)" />
        <path
            d="M351.59 187.44C351.59 187.44 351.797 189.56 352.181 191.159C352.506 192.513 353.021 193.56 353.067 194.952C353.105 196.099 352.388 196.992 349.021 197.072C346.161 197.135 345.169 196.004 345.258 194.442C345.342 192.992 345.832 191.903 346.098 190.229C346.287 189.023 346.422 187.589 346.422 187.589L351.59 187.44Z"
            fill="#835D4E" />
        <path
            d="M347.73 145.838L355.1 149.28L360.002 150.343C360.002 150.343 360.589 151.278 359.825 152.378C359.273 153.169 358.345 153.738 357.075 153.753C355.645 153.769 355.067 153.063 354.906 153.663C354.746 154.263 356.72 155.746 357.805 156.548C358.889 157.35 362.432 158.731 362.589 160.729C362.707 162.264 361.492 163.284 360.893 163.523C360.129 163.826 359.045 163.762 358.728 163.805C358.412 163.847 358.315 164.607 358.762 165.085C359.209 165.568 360.416 166.089 361.243 166.488C362.07 166.886 365.445 168.294 365.892 168.533C366.339 168.772 366.845 169.776 366.466 171.258C366.082 172.74 364.715 173.861 363.475 174.424C362.234 174.988 361.884 174.743 361.884 174.743C361.884 174.743 362.057 175.593 362.677 176.3C363.297 177.006 365.259 179.636 365.259 179.636C365.259 179.636 368.967 179.758 369.292 180.093C369.617 180.428 369.824 181.246 369.676 182.027C369.528 182.808 369.056 184.778 366.103 185.857C363.15 186.935 361.171 185.857 361.171 185.857C361.171 185.857 362.15 188.226 359.901 189.353C358.205 190.202 355.619 189.204 354.97 188.981C354.32 188.757 352.046 187.568 352.046 187.568C352.046 187.568 351.426 189.438 348.916 189.576C346.258 189.724 344.397 188.088 344.397 188.088C344.397 188.088 340.719 190.92 337.9 189.427C335.863 188.348 336.512 185.783 336.512 185.783C336.512 185.783 332.939 186.563 330.34 185.262C327.742 183.96 327.328 182.175 327.328 181.283C327.328 180.39 328.362 179.636 328.834 179.673C329.307 179.71 330.695 179.498 331.522 179.052C332.349 178.605 333.462 177.878 333.462 177.878C333.462 177.878 335.395 177.081 336.66 175.705C337.187 175.136 337.133 174.552 336.365 174.515C335.597 174.478 333.268 174.504 331.935 173.288C330.535 172.007 330.535 170.865 330.606 170.35C330.712 169.611 331.336 169.314 331.336 169.314C331.336 169.314 336.685 167.189 336.804 167.003C336.922 166.817 337.778 165.59 337.867 165.478C337.955 165.367 339.461 164.66 339.137 164.102C338.812 163.544 337.103 163.528 336.124 162.243C334.981 160.739 335.297 159.379 335.681 158.859C336.065 158.338 336.757 158.067 336.757 158.067C336.757 158.067 338.057 158.551 338.5 158.29C338.942 158.03 341.052 155.48 341.052 155.48C341.052 155.48 342.845 154.221 342.824 153.838C342.794 153.318 340.984 153.854 339.487 153.243C338.141 152.696 338.192 151.528 338.276 151.087C338.407 150.396 338.892 150.109 339.217 149.812C339.546 149.519 347.73 145.838 347.73 145.838Z"
            fill="#0A7C1F" />
        <path
            d="M350.734 139.07C350.734 139.07 351.894 142.108 353.864 144.871C356.994 149.259 360.036 150.375 360.036 150.375C360.036 150.375 359.652 151.788 357.615 151.713C355.311 151.628 352.299 149.557 352.299 149.557C352.299 149.557 351.413 152.234 350.32 153.796C349.008 155.671 347.464 157.037 345.92 156.027C345.338 155.645 345.22 154.051 345.92 152.941C347.641 150.21 346.532 150.412 346.41 150.55C346.41 150.55 345.064 151.862 342.587 151.825C340.111 151.788 339.221 149.817 339.221 149.817C339.221 149.817 342.292 147.66 344.3 144.722C346.308 141.784 347.962 139.256 347.962 139.256L350.734 139.07Z"
            fill="#02AB48" />
        <path
            d="M352.004 155.055C352.008 155.06 353.438 156.218 355.045 156.059C355.741 155.99 356.235 155.337 356.235 155.337C356.235 155.337 357.83 156.516 358.619 157.026C359.593 157.658 360.842 158.285 361.5 158.885C361.825 159.183 362.281 159.815 362.281 159.815C362.281 159.815 362.044 161.191 359.977 161.191C357.91 161.191 356.522 160.856 355.252 161.302C353.982 161.749 352.004 164.24 350.616 164.24C349.228 164.24 348.253 161.897 346.924 161.897C345.595 161.897 345.241 162.753 343.203 163.013C341.166 163.273 337.947 161.786 337.208 160.893C336.209 159.682 336.753 158.067 336.753 158.067C336.753 158.067 338.048 157.414 339.212 156.702C340.221 156.086 341.043 155.501 341.043 155.501C341.043 155.501 341.516 156.171 342.047 156.133C342.579 156.096 343.343 155.714 343.963 156.309C344.583 156.904 344.954 157.839 346.182 158.067C349.198 158.625 352.004 155.055 352.004 155.055Z"
            fill="#02AB48" />
        <path
            d="M365.909 168.554C365.909 168.554 366.339 170.36 364.356 171.481C362.374 172.602 358.648 171.609 358.475 171.827C358.302 172.044 361.53 174.244 359.842 176.045C357.826 178.196 352.628 171.784 352.286 171.784C351.945 171.784 351.772 177.081 349.688 178.026C347.604 178.972 345.553 175.099 344.288 174.626C343.022 174.153 342.098 175.572 340.461 175.657C338.301 175.768 337.247 175.057 337.112 173.936C336.977 172.815 338.888 170.796 338.479 170.366C338.069 169.935 337.352 171.529 334.479 171.269C331.606 171.008 331.319 169.314 331.319 169.314L337.884 165.483C337.884 165.483 338.786 166.838 340.221 166.881C341.655 166.923 345.279 166.148 346.714 166.663C348.148 167.178 348.595 169.245 350.987 169.117C353.379 168.99 354.986 166.966 356.628 167.954C358.269 168.942 359.471 170.206 360.382 169.5C360.905 169.091 360.851 168.506 360.804 167.598C360.77 166.907 360.559 166.179 360.559 166.179L365.909 168.554Z"
            fill="#02AB48" />
        <path
            d="M369.309 180.114C369.309 180.114 368.389 183.28 363.905 183.28C360.074 183.28 358.728 180.603 358.003 179.838C357.281 179.073 356.758 178 356.526 178.473C356.294 178.945 358.842 182.409 359.884 183.684C360.467 184.396 361.188 185.761 360.087 186.638C358.986 187.514 356.412 187.111 354.328 185.984C352.244 184.858 351.637 182.521 351.637 182.521C351.637 182.521 353.198 181.756 353.489 179.386C353.78 177.017 353.864 176.013 354.472 175.907C355.079 175.795 359.408 180.242 362.087 178.802C363.361 178.117 362.698 176.326 362.698 176.326C362.698 176.326 363.926 177.548 365.575 178.34C366.837 178.94 369.309 180.114 369.309 180.114Z"
            fill="#02AB48" />
        <path
            d="M350.793 182.701C350.793 182.701 351.333 184.826 351.223 185.347C351.017 186.34 350.245 187.366 348.304 187.18C346.363 186.999 345.296 186.085 345.321 185.283C345.347 184.481 346.595 182.478 345.988 181.968C345.38 181.458 344.946 182.622 344.338 183.865C343.731 185.108 341.098 189.113 338.318 187.217C335.774 185.48 339.187 182.043 338.491 181.495C337.795 180.948 336.146 182.877 333.631 182.733C329.176 182.478 328.569 179.71 328.569 179.71C328.569 179.71 330.277 179.163 331.26 178.834C332.243 178.504 333.462 177.883 333.462 177.883C333.462 177.883 335.458 179.163 338.234 179.052C341.01 178.94 342.663 177.559 343.849 177.814C345.034 178.069 345.933 180.178 347.41 181.384C349.464 183.063 350.793 182.701 350.793 182.701Z"
            fill="#02AB48" />
        <path
            d="M347.566 140.313C347.591 140.408 348.274 143.495 349.004 143.495C349.738 143.495 350.949 140.185 350.949 140.185C350.949 140.185 353.51 140.084 353.628 139.643C353.78 139.07 351.936 136.621 351.936 136.621C351.936 136.621 352.265 133.247 351.962 132.928C351.62 132.567 349.232 134.581 349.232 134.581C349.232 134.581 346.802 132.833 346.401 133.21C345.996 133.593 346.73 136.488 346.73 136.488C346.73 136.488 344.786 138.491 344.937 139.033C345.089 139.58 347.566 140.313 347.566 140.313Z"
            fill="#FCC11A" />
        <path
            d="M350.801 133.943C350.907 134.049 350.704 134.719 350.181 135.5C349.658 136.281 349.291 136.929 349.177 136.95C349.063 136.966 348.3 135.739 348.034 135.367C347.764 134.995 347.447 134.257 347.54 134.14C347.709 133.927 349.207 135.245 349.207 135.245C349.207 135.245 350.624 133.768 350.801 133.943Z"
            fill="#FEE56B" />
        <path
            d="M353.32 139.272C353.198 139.383 350.211 137.97 350.169 137.779C350.122 137.556 351.059 137.051 351.341 136.945C351.624 136.838 352.135 137.391 352.611 138.05C353.021 138.602 353.421 139.181 353.32 139.272Z"
            fill="#FEE56B" />
        <path
            d="M348.388 144.797C349.89 144.823 350.557 146.119 350.54 147.681C350.523 149.243 349.633 150.3 348.232 150.279C346.831 150.258 346.102 149.047 346.152 147.352C346.194 145.875 347.026 144.775 348.388 144.797Z"
            fill="#FF5F5E" />
        <path
            d="M342.6 155.331C344.102 155.358 344.975 156.76 344.959 158.322C344.942 159.884 343.997 161.095 342.495 161.074C340.955 161.053 340.187 159.666 340.242 157.972C340.284 156.5 341.238 155.31 342.6 155.331Z"
            fill="#FCD81E" />
        <path
            d="M352.687 155.878C354.261 155.905 355.1 157.276 355.083 158.938C355.067 160.601 354.012 161.781 352.548 161.754C351.084 161.733 350.274 160.41 350.329 158.609C350.375 157.037 351.261 155.857 352.687 155.878Z"
            fill="#DF0E2B" />
        <path
            d="M356.843 165.94C358.433 165.962 359.218 167.438 359.201 169.176C359.18 170.913 358.218 172.06 356.67 172.034C355.121 172.007 354.307 170.663 354.362 168.777C354.413 167.141 355.332 165.919 356.843 165.94Z"
            fill="#FFD2B1" />
        <path
            d="M347.971 168.963C349.641 168.99 350.38 170.429 350.358 172.167C350.337 173.904 349.35 175.078 347.798 175.051C346.245 175.025 345.431 173.681 345.486 171.8C345.536 170.164 346.456 168.942 347.971 168.963Z"
            fill="#FCD81E" />
        <path
            d="M339.955 165.962C341.638 165.988 342.461 167.46 342.444 169.218C342.423 170.977 341.444 172.278 339.875 172.257C338.31 172.23 337.39 170.748 337.449 168.841C337.495 167.178 338.424 165.94 339.955 165.962Z"
            fill="#FF5F5D" />
        <path
            d="M339.09 180.943C339.014 179.004 339.926 177.984 341.191 177.888C342.457 177.793 343.414 178.765 343.503 180.566C343.592 182.367 342.727 183.573 341.351 183.631C340.153 183.684 339.162 182.797 339.09 180.943Z"
            fill="#C9C9C9" />
        <path
            d="M356.151 178.069C357.716 178.095 358.408 179.423 358.391 181.022C358.374 182.622 357.446 183.705 355.991 183.684C354.535 183.663 353.772 182.42 353.826 180.688C353.869 179.168 354.729 178.042 356.151 178.069Z"
            fill="#FF5F5E" />
        <path
            d="M357.627 180.969C357.172 181.277 356.999 180.443 356.771 180.157C356.543 179.87 356.003 179.386 356.265 178.967C356.526 178.547 357.193 178.786 357.505 179.232C357.927 179.827 357.998 180.72 357.627 180.969Z"
            fill="#F9FFFF" />
        <path
            d="M342.668 180.884C342.212 181.192 342.018 180.353 341.828 180.024C341.583 179.604 340.989 179.317 341.25 178.903C341.512 178.483 342.145 178.749 342.457 179.19C342.879 179.785 343.039 180.629 342.668 180.884Z"
            fill="#F9FFFF" />
        <path
            d="M341.507 169.064C341.005 169.388 340.816 168.474 340.571 168.097C340.351 167.762 339.71 167.401 340.001 166.96C340.292 166.519 340.976 166.753 341.322 167.215C341.786 167.842 341.917 168.798 341.507 169.064Z"
            fill="#F9FFFF" />
        <path
            d="M349.447 172.103C348.992 172.411 348.819 171.577 348.591 171.29C348.363 171.003 347.823 170.366 348.085 169.946C348.346 169.526 348.992 169.792 349.325 170.366C349.696 171.008 349.818 171.853 349.447 172.103Z"
            fill="#F9FFFF" />
        <path
            d="M358.345 169.085C357.889 169.393 357.602 168.522 357.404 168.203C357.02 167.587 356.653 167.258 356.914 166.838C357.176 166.418 357.876 166.774 358.222 167.343C358.602 167.98 358.712 168.836 358.345 169.085Z"
            fill="#F9FFFF" />
        <path
            d="M354.172 158.917C353.717 159.225 353.497 158.434 353.316 158.104C353.037 157.6 352.514 157.18 352.776 156.76C353.037 156.341 353.666 156.564 354.05 157.18C354.438 157.802 354.543 158.662 354.172 158.917Z"
            fill="#F9FFFF" />
        <path
            d="M344.005 158.646C343.507 158.986 343.317 158.067 343.069 157.754C342.82 157.44 342.225 156.909 342.512 156.452C342.799 155.995 343.528 156.256 343.87 156.739C344.334 157.392 344.414 158.375 344.005 158.646Z"
            fill="#F9FFFF" />
        <path
            d="M349.89 147.633C349.434 147.942 349.261 147.107 349.034 146.821C348.806 146.534 348.266 146.05 348.527 145.631C348.789 145.211 349.316 145.434 349.7 146.002C350.105 146.613 350.261 147.384 349.89 147.633Z"
            fill="#F9FFFF" />
        <path
            d="M354.691 148.138C355.341 148.138 355.636 148.489 355.687 149.217C355.737 149.923 355.387 150.359 354.864 150.407C354.13 150.47 353.902 149.705 353.902 149.217C353.906 148.664 354.257 148.138 354.691 148.138Z"
            fill="#F9C319" />
        <path
            d="M351.902 151.257C352.451 150.821 352.923 151.113 353.151 151.469C353.476 151.974 353.425 152.744 352.97 153.058C352.375 153.467 351.898 153.153 351.704 152.787C351.409 152.234 351.497 151.581 351.902 151.257Z"
            fill="#F9C319" />
        <path
            d="M349.413 152.728C349.974 152.861 350.236 153.429 350.126 154.147C350.042 154.71 349.548 155.108 349.042 154.954C348.325 154.742 348.291 153.918 348.409 153.456C348.536 152.935 348.983 152.632 349.413 152.728Z"
            fill="#F9C319" />
        <path
            d="M342.334 149.434C342.845 148.93 343.368 149.121 343.634 149.541C343.937 150.019 343.963 150.64 343.579 151.087C343.123 151.612 342.486 151.336 342.263 150.975C342.005 150.566 341.993 149.774 342.334 149.434Z"
            fill="#F9C319" />
        <path
            d="M345.237 152.362C345.891 152.362 346.19 152.712 346.245 153.435C346.296 154.136 345.925 154.593 345.397 154.641C344.655 154.704 344.444 153.918 344.444 153.435C344.44 152.887 344.794 152.362 345.237 152.362Z"
            fill="#F9C319" />
        <path
            d="M357.02 160.065C357.686 160.065 357.99 160.421 358.045 161.154C358.096 161.866 357.737 162.307 357.201 162.354C356.446 162.423 356.214 161.642 356.214 161.154C356.214 160.596 356.573 160.065 357.02 160.065Z"
            fill="#F9C319" />
        <path
            d="M354.016 162.96C354.657 162.705 355.003 162.949 355.265 163.624C355.476 164.171 355.265 164.899 354.75 165.117C354.008 165.425 353.628 164.809 353.51 164.331C353.371 163.789 353.586 163.13 354.016 162.96Z"
            fill="#F9C319" />
        <path
            d="M350.033 166.387C350.05 165.537 350.363 165.159 350.983 165.112C351.59 165.064 351.949 165.537 351.974 166.227C352.008 167.194 351.346 167.47 350.932 167.454C350.46 167.433 350.021 166.96 350.033 166.387Z"
            fill="#F9C319" />
        <path
            d="M346.844 164.904C347.54 164.904 347.857 165.276 347.916 166.047C347.971 166.796 347.595 167.252 347.034 167.306C346.245 167.375 346.001 166.562 346.001 166.047C346.001 165.462 346.376 164.904 346.844 164.904Z"
            fill="#F9C319" />
        <path
            d="M342.921 163.385C343.57 163.385 343.866 163.736 343.916 164.463C343.967 165.17 343.617 165.606 343.094 165.653C342.36 165.717 342.132 164.952 342.132 164.463C342.136 163.916 342.486 163.385 342.921 163.385Z"
            fill="#F9C319" />
        <path
            d="M340.322 162.36C340.191 163.087 339.744 163.364 339.183 163.183C338.639 163.008 338.428 162.45 338.567 161.812C338.761 160.92 339.415 160.904 339.778 161.069C340.187 161.249 340.415 161.823 340.322 162.36Z"
            fill="#F9C319" />
        <path
            d="M334.673 169.845C335.289 169.845 335.572 170.185 335.622 170.881C335.673 171.561 335.34 171.981 334.838 172.023C334.137 172.087 333.922 171.348 333.922 170.881C333.922 170.355 334.255 169.845 334.673 169.845Z"
            fill="#F9C319" />
        <path
            d="M336.601 173.957C336.538 173.059 336.812 172.618 337.437 172.475C338.044 172.337 338.453 172.777 338.546 173.495C338.677 174.504 338.031 174.892 337.609 174.94C337.133 174.993 336.643 174.562 336.601 173.957Z"
            fill="#F9C319" />
        <path
            d="M340.951 174.509C341.634 174.547 342.005 175.136 341.963 175.986C341.921 176.815 341.444 177.235 340.824 177.166C339.955 177.07 339.799 176.13 339.871 175.567C339.951 174.934 340.432 174.478 340.951 174.509Z"
            fill="#F9C319" />
        <path
            d="M344.908 176.284C345.604 176.172 346.021 176.687 346.085 177.527C346.144 178.34 345.73 178.828 345.114 178.897C344.119 179.014 343.98 178.09 343.98 177.527C343.98 176.895 344.397 176.363 344.908 176.284Z"
            fill="#F9C319" />
        <path
            d="M349.856 176.964C350.54 177.001 350.911 177.591 350.869 178.441C350.827 179.269 350.35 179.689 349.73 179.62C348.861 179.524 348.705 178.584 348.776 178.021C348.852 177.389 349.337 176.937 349.856 176.964Z"
            fill="#F9C319" />
        <path
            d="M354.168 175.296C354.839 175.333 355.189 176.002 355.159 176.735C355.13 177.538 354.653 177.947 354.046 177.878C353.193 177.782 353.042 176.868 353.109 176.326C353.189 175.705 353.662 175.264 354.168 175.296Z"
            fill="#F9C319" />
        <path
            d="M358.214 173.24C358.885 173.277 359.247 173.851 359.205 174.674C359.163 175.476 358.703 175.88 358.096 175.811C357.243 175.715 357.092 174.807 357.159 174.26C357.235 173.649 357.708 173.213 358.214 173.24Z"
            fill="#F9C319" />
        <path
            d="M360.745 169.208C361.323 169.239 361.635 169.739 361.597 170.461C361.559 171.163 361.163 171.518 360.64 171.46C359.906 171.38 359.775 170.583 359.838 170.105C359.901 169.569 360.311 169.186 360.745 169.208Z"
            fill="#F9C319" />
    </g>
    <g clip-path="url(#clip1_0_1)">
        <ellipse cx="27" cy="2.5" rx="27" ry="2.5" transform="matrix(-1 0 0 1 329 224)"
            fill="url(#paint1_radial_0_1)" />
        <path
            d="M305.494 217.44C305.494 217.44 305.693 219.56 306.063 221.159C306.376 222.513 306.871 223.56 306.916 224.952C306.953 226.099 306.262 226.992 303.02 227.072C300.266 227.135 299.311 226.004 299.396 224.442C299.478 222.992 299.949 221.903 300.205 220.229C300.388 219.023 300.518 217.589 300.518 217.589L305.494 217.44Z"
            fill="#835D4E" />
        <path
            d="M301.777 175.838L308.874 179.28L313.595 180.343C313.595 180.343 314.16 181.278 313.424 182.378C312.892 183.169 311.998 183.738 310.776 183.753C309.398 183.769 308.842 183.063 308.687 183.663C308.533 184.263 310.434 185.746 311.478 186.548C312.522 187.35 315.935 188.731 316.085 190.729C316.199 192.264 315.029 193.284 314.452 193.523C313.717 193.826 312.673 193.762 312.368 193.805C312.063 193.847 311.97 194.607 312.401 195.085C312.831 195.568 313.993 196.089 314.789 196.488C315.586 196.886 318.836 198.294 319.266 198.533C319.697 198.772 320.184 199.776 319.819 201.258C319.449 202.74 318.133 203.861 316.938 204.424C315.744 204.988 315.407 204.743 315.407 204.743C315.407 204.743 315.573 205.593 316.171 206.3C316.768 207.006 318.657 209.636 318.657 209.636C318.657 209.636 322.228 209.758 322.541 210.093C322.853 210.428 323.052 211.246 322.91 212.027C322.768 212.808 322.313 214.778 319.469 215.857C316.626 216.935 314.72 215.857 314.72 215.857C314.72 215.857 315.663 218.226 313.497 219.353C311.864 220.202 309.374 219.204 308.748 218.981C308.123 218.757 305.933 217.568 305.933 217.568C305.933 217.568 305.336 219.438 302.919 219.576C300.359 219.724 298.568 218.088 298.568 218.088C298.568 218.088 295.025 220.92 292.312 219.427C290.349 218.348 290.975 215.783 290.975 215.783C290.975 215.783 287.534 216.563 285.032 215.262C282.529 213.96 282.131 212.175 282.131 211.283C282.131 210.39 283.126 209.636 283.581 209.673C284.036 209.71 285.373 209.498 286.169 209.052C286.965 208.605 288.038 207.878 288.038 207.878C288.038 207.878 289.898 207.081 291.117 205.705C291.625 205.136 291.572 204.552 290.833 204.515C290.093 204.478 287.851 204.504 286.567 203.288C285.218 202.007 285.218 200.865 285.287 200.35C285.389 199.611 285.99 199.314 285.99 199.314C285.99 199.314 291.142 197.189 291.255 197.003C291.369 196.817 292.194 195.59 292.279 195.478C292.364 195.367 293.815 194.66 293.502 194.102C293.189 193.544 291.544 193.528 290.601 192.243C289.5 190.739 289.805 189.379 290.175 188.859C290.544 188.338 291.211 188.067 291.211 188.067C291.211 188.067 292.462 188.551 292.888 188.29C293.315 188.03 295.346 185.48 295.346 185.48C295.346 185.48 297.073 184.221 297.052 183.838C297.024 183.318 295.281 183.854 293.839 183.243C292.543 182.696 292.592 181.528 292.673 181.087C292.799 180.396 293.266 180.109 293.579 179.812C293.896 179.519 301.777 175.838 301.777 175.838Z"
            fill="#0A7C1F" />
        <path
            d="M304.67 169.07C304.67 169.07 305.787 172.108 307.684 174.871C310.698 179.259 313.627 180.375 313.627 180.375C313.627 180.375 313.258 181.788 311.296 181.713C309.077 181.628 306.177 179.557 306.177 179.557C306.177 179.557 305.324 182.234 304.272 183.796C303.008 185.671 301.521 187.037 300.034 186.027C299.474 185.645 299.36 184.051 300.034 182.941C301.692 180.21 300.623 180.412 300.506 180.55C300.506 180.55 299.21 181.862 296.825 181.825C294.44 181.788 293.583 179.817 293.583 179.817C293.583 179.817 296.541 177.66 298.474 174.722C300.408 171.784 302.001 169.256 302.001 169.256L304.67 169.07Z"
            fill="#02AB48" />
        <path
            d="M305.893 185.055C305.897 185.06 307.274 186.218 308.822 186.059C309.492 185.99 309.967 185.337 309.967 185.337C309.967 185.337 311.503 186.516 312.263 187.026C313.201 187.658 314.404 188.285 315.037 188.885C315.35 189.183 315.789 189.815 315.789 189.815C315.789 189.815 315.561 191.191 313.571 191.191C311.58 191.191 310.244 190.856 309.021 191.302C307.798 191.749 305.893 194.24 304.556 194.24C303.219 194.24 302.281 191.897 301.001 191.897C299.722 191.897 299.38 192.753 297.418 193.013C295.456 193.273 292.356 191.786 291.645 190.893C290.683 189.682 291.207 188.067 291.207 188.067C291.207 188.067 292.454 187.414 293.575 186.702C294.546 186.086 295.338 185.501 295.338 185.501C295.338 185.501 295.793 186.171 296.305 186.133C296.817 186.096 297.552 185.714 298.149 186.309C298.747 186.904 299.104 187.839 300.286 188.067C303.191 188.625 305.893 185.055 305.893 185.055Z"
            fill="#02AB48" />
        <path
            d="M319.283 198.554C319.283 198.554 319.697 200.36 317.788 201.481C315.878 202.602 312.291 201.609 312.124 201.827C311.958 202.044 315.066 204.244 313.441 206.045C311.499 208.196 306.494 201.784 306.165 201.784C305.836 201.784 305.669 207.081 303.662 208.026C301.655 208.972 299.681 205.099 298.462 204.626C297.244 204.153 296.354 205.572 294.778 205.657C292.698 205.768 291.682 205.057 291.552 203.936C291.422 202.815 293.262 200.796 292.868 200.366C292.474 199.935 291.784 201.529 289.017 201.269C286.25 201.008 285.974 199.314 285.974 199.314L292.295 195.483C292.295 195.483 293.165 196.838 294.546 196.881C295.927 196.923 299.417 196.148 300.798 196.663C302.179 197.178 302.61 199.245 304.914 199.117C307.217 198.99 308.765 196.966 310.345 197.954C311.925 198.942 313.083 200.206 313.961 199.5C314.464 199.091 314.412 198.506 314.367 197.598C314.334 196.907 314.131 196.179 314.131 196.179L319.283 198.554Z"
            fill="#02AB48" />
        <path
            d="M322.557 210.114C322.557 210.114 321.671 213.28 317.353 213.28C313.664 213.28 312.368 210.603 311.669 209.838C310.975 209.073 310.471 208 310.248 208.473C310.024 208.945 312.478 212.409 313.481 213.684C314.042 214.396 314.737 215.761 313.676 216.638C312.616 217.514 310.138 217.111 308.131 215.984C306.124 214.858 305.539 212.521 305.539 212.521C305.539 212.521 307.042 211.756 307.323 209.386C307.603 207.017 307.684 206.013 308.269 205.907C308.854 205.795 313.022 210.242 315.602 208.802C316.829 208.117 316.191 206.326 316.191 206.326C316.191 206.326 317.373 207.548 318.962 208.34C320.176 208.94 322.557 210.114 322.557 210.114Z"
            fill="#02AB48" />
        <path
            d="M304.726 212.701C304.726 212.701 305.246 214.826 305.141 215.347C304.942 216.34 304.198 217.366 302.33 217.18C300.461 216.999 299.433 216.085 299.457 215.283C299.482 214.481 300.684 212.478 300.099 211.968C299.514 211.458 299.096 212.622 298.511 213.865C297.926 215.108 295.391 219.113 292.714 217.217C290.264 215.48 293.551 212.043 292.88 211.495C292.21 210.948 290.621 212.877 288.2 212.733C283.91 212.478 283.325 209.71 283.325 209.71C283.325 209.71 284.971 209.163 285.917 208.834C286.864 208.504 288.038 207.883 288.038 207.883C288.038 207.883 289.959 209.163 292.632 209.052C295.306 208.94 296.898 207.559 298.04 207.814C299.181 208.069 300.046 210.178 301.468 211.384C303.447 213.063 304.726 212.701 304.726 212.701Z"
            fill="#02AB48" />
        <path
            d="M301.619 170.313C301.643 170.408 302.301 173.495 303.004 173.495C303.711 173.495 304.877 170.185 304.877 170.185C304.877 170.185 307.343 170.084 307.457 169.643C307.603 169.07 305.827 166.621 305.827 166.621C305.827 166.621 306.144 163.247 305.852 162.928C305.523 162.567 303.223 164.581 303.223 164.581C303.223 164.581 300.883 162.833 300.497 163.21C300.107 163.593 300.814 166.488 300.814 166.488C300.814 166.488 298.942 168.491 299.088 169.033C299.234 169.58 301.619 170.313 301.619 170.313Z"
            fill="#FCC11A" />
        <path
            d="M304.735 163.943C304.836 164.049 304.641 164.719 304.138 165.5C303.634 166.281 303.28 166.929 303.171 166.95C303.061 166.966 302.326 165.739 302.07 165.367C301.81 164.995 301.505 164.257 301.594 164.14C301.757 163.927 303.199 165.245 303.199 165.245C303.199 165.245 304.564 163.768 304.735 163.943Z"
            fill="#FEE56B" />
        <path
            d="M307.16 169.272C307.042 169.383 304.166 167.97 304.125 167.779C304.081 167.556 304.983 167.051 305.255 166.945C305.527 166.838 306.018 167.391 306.478 168.05C306.872 168.602 307.258 169.181 307.16 169.272Z"
            fill="#FEE56B" />
        <path
            d="M302.411 174.797C303.857 174.823 304.499 176.119 304.483 177.681C304.467 179.243 303.609 180.3 302.261 180.279C300.912 180.258 300.209 179.047 300.258 177.352C300.298 175.875 301.099 174.775 302.411 174.797Z"
            fill="#FF5F5E" />
        <path
            d="M296.837 185.331C298.283 185.358 299.124 186.76 299.108 188.322C299.092 189.884 298.182 191.095 296.736 191.074C295.253 191.053 294.513 189.666 294.566 187.972C294.607 186.5 295.525 185.31 296.837 185.331Z"
            fill="#FCD81E" />
        <path
            d="M306.551 185.878C308.066 185.905 308.874 187.276 308.858 188.938C308.842 190.601 307.826 191.781 306.417 191.754C305.007 191.733 304.227 190.41 304.28 188.609C304.324 187.037 305.178 185.857 306.551 185.878Z"
            fill="#DF0E2B" />
        <path
            d="M310.552 195.94C312.084 195.962 312.839 197.438 312.823 199.176C312.803 200.913 311.877 202.06 310.386 202.034C308.895 202.007 308.111 200.663 308.164 198.777C308.212 197.141 309.098 195.919 310.552 195.94Z"
            fill="#FFD2B1" />
        <path
            d="M302.009 198.963C303.618 198.99 304.328 200.429 304.308 202.167C304.288 203.904 303.337 205.078 301.842 205.051C300.347 205.025 299.563 203.681 299.616 201.8C299.665 200.164 300.55 198.942 302.009 198.963Z"
            fill="#FCD81E" />
        <path
            d="M294.29 195.962C295.911 195.988 296.703 197.46 296.687 199.218C296.666 200.977 295.724 202.278 294.213 202.257C292.706 202.23 291.82 200.748 291.877 198.841C291.921 197.178 292.815 195.94 294.29 195.962Z"
            fill="#FF5F5D" />
        <path
            d="M293.457 210.943C293.384 209.004 294.262 207.984 295.48 207.888C296.699 207.793 297.621 208.765 297.707 210.566C297.792 212.367 296.959 213.573 295.635 213.631C294.481 213.684 293.526 212.797 293.457 210.943Z"
            fill="#C9C9C9" />
        <path
            d="M309.886 208.069C311.393 208.095 312.059 209.423 312.043 211.022C312.027 212.622 311.133 213.705 309.732 213.684C308.33 213.663 307.595 212.42 307.648 210.688C307.688 209.168 308.517 208.042 309.886 208.069Z"
            fill="#FF5F5E" />
        <path
            d="M311.308 210.969C310.869 211.277 310.702 210.443 310.483 210.157C310.264 209.87 309.744 209.386 309.996 208.967C310.247 208.547 310.889 208.786 311.19 209.232C311.596 209.827 311.665 210.72 311.308 210.969Z"
            fill="#F9FFFF" />
        <path
            d="M296.902 210.884C296.463 211.192 296.277 210.353 296.094 210.024C295.858 209.604 295.285 209.317 295.537 208.903C295.789 208.483 296.398 208.749 296.699 209.19C297.105 209.785 297.26 210.629 296.902 210.884Z"
            fill="#F9FFFF" />
        <path
            d="M295.785 199.064C295.302 199.388 295.119 198.474 294.883 198.097C294.672 197.762 294.054 197.401 294.335 196.96C294.615 196.519 295.273 196.753 295.606 197.215C296.053 197.842 296.179 198.798 295.785 199.064Z"
            fill="#F9FFFF" />
        <path
            d="M303.431 202.103C302.992 202.411 302.825 201.577 302.606 201.29C302.387 201.003 301.867 200.366 302.118 199.946C302.37 199.526 302.992 199.792 303.313 200.366C303.67 201.008 303.788 201.853 303.431 202.103Z"
            fill="#F9FFFF" />
        <path
            d="M311.998 199.085C311.56 199.393 311.283 198.522 311.092 198.203C310.723 197.587 310.369 197.258 310.621 196.838C310.873 196.418 311.547 196.774 311.881 197.343C312.246 197.98 312.352 198.836 311.998 199.085Z"
            fill="#F9FFFF" />
        <path
            d="M307.981 188.917C307.542 189.225 307.331 188.434 307.156 188.104C306.888 187.6 306.384 187.18 306.636 186.76C306.888 186.341 307.493 186.564 307.863 187.18C308.237 187.802 308.338 188.662 307.981 188.917Z"
            fill="#F9FFFF" />
        <path
            d="M298.19 188.646C297.711 188.986 297.528 188.067 297.288 187.754C297.048 187.44 296.476 186.909 296.752 186.452C297.028 185.995 297.731 186.256 298.06 186.739C298.507 187.392 298.584 188.375 298.19 188.646Z"
            fill="#F9FFFF" />
        <path
            d="M303.857 177.633C303.418 177.942 303.252 177.107 303.032 176.821C302.813 176.534 302.293 176.05 302.545 175.631C302.797 175.211 303.305 175.434 303.674 176.002C304.064 176.613 304.215 177.384 303.857 177.633Z"
            fill="#F9FFFF" />
        <path
            d="M308.48 178.138C309.106 178.138 309.39 178.489 309.439 179.217C309.488 179.923 309.151 180.359 308.647 180.407C307.94 180.47 307.721 179.705 307.721 179.217C307.725 178.664 308.062 178.138 308.48 178.138Z"
            fill="#F9C319" />
        <path
            d="M305.795 181.257C306.323 180.821 306.778 181.113 306.998 181.469C307.31 181.974 307.262 182.744 306.823 183.058C306.25 183.467 305.791 183.153 305.604 182.787C305.32 182.234 305.405 181.581 305.795 181.257Z"
            fill="#F9C319" />
        <path
            d="M303.398 182.728C303.939 182.861 304.19 183.429 304.085 184.147C304.004 184.71 303.528 185.108 303.041 184.954C302.35 184.742 302.318 183.918 302.431 183.456C302.553 182.935 302.984 182.632 303.398 182.728Z"
            fill="#F9C319" />
        <path
            d="M296.581 179.434C297.073 178.93 297.576 179.121 297.832 179.541C298.125 180.019 298.149 180.64 297.78 181.087C297.341 181.612 296.727 181.336 296.512 180.975C296.264 180.566 296.252 179.774 296.581 179.434Z"
            fill="#F9C319" />
        <path
            d="M299.376 182.362C300.006 182.362 300.294 182.712 300.347 183.435C300.396 184.136 300.038 184.593 299.531 184.641C298.816 184.704 298.612 183.918 298.612 183.435C298.608 182.887 298.95 182.362 299.376 182.362Z"
            fill="#F9C319" />
        <path
            d="M310.723 190.065C311.365 190.065 311.657 190.421 311.71 191.154C311.759 191.866 311.413 192.307 310.898 192.354C310.17 192.423 309.947 191.642 309.947 191.154C309.947 190.596 310.292 190.065 310.723 190.065Z"
            fill="#F9C319" />
        <path
            d="M307.83 192.96C308.448 192.705 308.781 192.949 309.033 193.624C309.236 194.171 309.033 194.899 308.537 195.117C307.822 195.425 307.457 194.809 307.343 194.331C307.209 193.789 307.416 193.13 307.83 192.96Z"
            fill="#F9C319" />
        <path
            d="M303.995 196.387C304.012 195.537 304.312 195.159 304.909 195.112C305.494 195.064 305.84 195.537 305.864 196.227C305.897 197.194 305.259 197.47 304.861 197.454C304.406 197.433 303.983 196.96 303.995 196.387Z"
            fill="#F9C319" />
        <path
            d="M300.924 194.904C301.594 194.904 301.899 195.276 301.956 196.047C302.009 196.796 301.647 197.252 301.107 197.306C300.347 197.375 300.111 196.562 300.111 196.047C300.111 195.462 300.473 194.904 300.924 194.904Z"
            fill="#F9C319" />
        <path
            d="M297.146 193.385C297.772 193.385 298.056 193.736 298.105 194.463C298.153 195.17 297.816 195.606 297.313 195.653C296.606 195.717 296.386 194.952 296.386 194.463C296.39 193.916 296.728 193.385 297.146 193.385Z"
            fill="#F9C319" />
        <path
            d="M294.643 192.36C294.518 193.087 294.087 193.364 293.547 193.183C293.023 193.008 292.819 192.45 292.953 191.812C293.14 190.92 293.77 190.904 294.119 191.069C294.513 191.249 294.733 191.823 294.643 192.36Z"
            fill="#F9C319" />
        <path
            d="M289.204 199.845C289.797 199.845 290.069 200.185 290.118 200.881C290.167 201.561 289.846 201.981 289.362 202.023C288.688 202.087 288.481 201.348 288.481 200.881C288.481 200.355 288.802 199.845 289.204 199.845Z"
            fill="#F9C319" />
        <path
            d="M291.06 203.957C290.999 203.059 291.263 202.618 291.865 202.475C292.45 202.337 292.844 202.777 292.933 203.495C293.059 204.504 292.438 204.892 292.031 204.94C291.572 204.993 291.101 204.562 291.06 203.957Z"
            fill="#F9C319" />
        <path
            d="M295.249 204.509C295.907 204.547 296.264 205.136 296.224 205.986C296.183 206.815 295.724 207.235 295.127 207.166C294.29 207.07 294.14 206.13 294.209 205.567C294.286 204.934 294.749 204.478 295.249 204.509Z"
            fill="#F9C319" />
        <path
            d="M299.059 206.284C299.73 206.172 300.132 206.687 300.193 207.527C300.25 208.34 299.852 208.828 299.258 208.897C298.3 209.014 298.166 208.09 298.166 207.527C298.166 206.895 298.568 206.363 299.059 206.284Z"
            fill="#F9C319" />
        <path
            d="M303.825 206.964C304.483 207.001 304.84 207.591 304.8 208.441C304.759 209.269 304.3 209.689 303.703 209.62C302.866 209.524 302.716 208.584 302.785 208.021C302.858 207.389 303.325 206.937 303.825 206.964Z"
            fill="#F9C319" />
        <path
            d="M307.977 205.296C308.622 205.333 308.96 206.002 308.931 206.735C308.903 207.538 308.444 207.947 307.859 207.878C307.038 207.782 306.892 206.868 306.957 206.326C307.034 205.705 307.489 205.264 307.977 205.296Z"
            fill="#F9C319" />
        <path
            d="M311.872 203.24C312.518 203.277 312.868 203.851 312.827 204.674C312.787 205.476 312.344 205.88 311.759 205.811C310.938 205.715 310.792 204.807 310.857 204.26C310.93 203.649 311.385 203.213 311.872 203.24Z"
            fill="#F9C319" />
        <path
            d="M314.31 199.208C314.866 199.239 315.167 199.739 315.131 200.461C315.094 201.163 314.712 201.518 314.208 201.46C313.501 201.38 313.376 200.583 313.436 200.105C313.497 199.569 313.891 199.186 314.31 199.208Z"
            fill="#F9C319" />
    </g>
    <rect y="232" width="390" height="25" fill="url(#paint2_linear_0_1)" />
    <g clip-path="url(#clip2_0_1)">
        <path
            d="M137.993 179.262L139.141 179.68C139.227 179.711 139.318 179.725 139.409 179.72C139.5 179.715 139.588 179.692 139.67 179.651C139.751 179.611 139.823 179.555 139.881 179.485C139.939 179.416 139.981 179.336 140.006 179.249C140.051 179.085 140.03 178.91 139.949 178.759C139.869 178.609 139.733 178.494 139.571 178.437L139.313 178.343L139.813 176.97L138.282 176.413L137.569 178.37C137.507 178.543 137.516 178.734 137.595 178.901C137.675 179.068 137.818 179.198 137.993 179.262Z"
            fill="#CCCCCC" />
        <path
            d="M141.448 173.685L142.883 174.052C143.092 174.106 143.313 174.075 143.498 173.967C143.683 173.858 143.816 173.681 143.869 173.475C143.921 173.268 143.888 173.049 143.777 172.865C143.666 172.681 143.487 172.548 143.277 172.494L141.843 172.127C141.687 172.087 141.522 172.093 141.371 172.146C141.22 172.198 141.088 172.294 140.992 172.421C140.896 172.548 140.841 172.701 140.833 172.86C140.825 173.019 140.865 173.177 140.948 173.314C140.972 173.355 141 173.393 141.031 173.429C141.14 173.555 141.286 173.644 141.448 173.685Z"
            fill="#CCCCCC" />
        <path
            d="M145.34 173.851C145.365 173.754 145.37 173.652 145.355 173.552C145.34 173.452 145.305 173.356 145.252 173.269C145.2 173.182 145.131 173.106 145.049 173.045C144.967 172.984 144.874 172.94 144.775 172.915L144.697 172.881L144.863 172.808C144.885 172.798 144.905 172.784 144.921 172.767C144.938 172.75 144.951 172.729 144.96 172.707C144.968 172.684 144.972 172.66 144.971 172.636C144.971 172.612 144.965 172.589 144.955 172.567C144.945 172.545 144.931 172.525 144.913 172.508C144.895 172.492 144.875 172.479 144.852 172.47C144.829 172.461 144.805 172.457 144.781 172.458C144.756 172.458 144.733 172.464 144.71 172.473L144.239 172.68L143.723 172.454C143.686 172.438 143.646 172.429 143.606 172.429C143.566 172.428 143.527 172.436 143.49 172.451C143.453 172.466 143.42 172.489 143.392 172.517C143.364 172.545 143.343 172.579 143.328 172.616L142.858 173.843C142.842 173.884 142.836 173.929 142.84 173.973C142.845 174.017 142.859 174.06 142.882 174.099C142.905 174.137 142.937 174.169 142.975 174.194C143.013 174.218 143.055 174.234 143.1 174.239L144.398 174.403C144.598 174.454 144.81 174.424 144.986 174.321C145.163 174.218 145.29 174.049 145.34 173.851Z"
            fill="#3F3D56" />
        <path
            d="M137.78 177.358C136.185 176.777 135.451 174.769 136.142 172.873C136.832 170.977 138.684 169.911 140.279 170.491C141.874 171.072 142.608 173.08 141.918 174.976C141.228 176.872 139.375 177.938 137.78 177.358Z"
            fill="#E6E6E6" />
        <path
            d="M140.665 174.52C140.55 174.478 140.514 174.287 140.584 174.094C140.654 173.9 140.805 173.777 140.92 173.819C141.035 173.861 141.072 174.052 141.001 174.245C140.931 174.439 140.781 174.562 140.665 174.52Z"
            fill="#3F3D56" />
        <path
            d="M140.38 175.52C140.265 175.478 140.228 175.287 140.298 175.094C140.369 174.9 140.519 174.778 140.635 174.82C140.75 174.862 140.786 175.052 140.716 175.246C140.646 175.439 140.495 175.562 140.38 175.52Z"
            fill="#3F3D56" />
        <path
            d="M140.039 171.259C138.809 170.812 138.17 169.465 138.612 168.251C139.054 167.038 140.409 166.417 141.639 166.865C142.868 167.312 143.507 168.659 143.066 169.873C142.624 171.086 141.269 171.707 140.039 171.259Z"
            fill="#E6E6E6" />
        <path
            d="M139.197 167.726L142.886 169.068C143.006 169.112 143.138 169.107 143.253 169.054C143.368 169.001 143.457 168.905 143.501 168.787L143.626 168.443C144.046 167.287 143.251 165.78 141.967 165.313C140.683 164.845 139.523 165.64 139.102 166.797L138.952 167.209C138.916 167.309 138.921 167.42 138.967 167.517C139.013 167.614 139.096 167.689 139.197 167.726Z"
            fill="#3F3D56" />
        <path
            d="M138.106 171.828L137.705 173.233C137.647 173.438 137.673 173.658 137.779 173.846C137.884 174.033 138.06 174.171 138.268 174.231C138.371 174.261 138.478 174.27 138.584 174.258C138.69 174.247 138.793 174.215 138.886 174.164C139.074 174.061 139.213 173.888 139.271 173.683L139.672 172.278C139.716 172.125 139.712 171.962 139.663 171.81C139.613 171.658 139.519 171.524 139.393 171.425C139.266 171.325 139.113 171.264 138.953 171.251C138.792 171.237 138.632 171.27 138.491 171.347C138.45 171.37 138.411 171.396 138.374 171.425C138.245 171.528 138.151 171.669 138.106 171.828Z"
            fill="#CCCCCC" />
        <path
            d="M137.857 175.672C137.955 175.7 138.058 175.709 138.159 175.698C138.26 175.686 138.358 175.656 138.447 175.607C138.536 175.559 138.614 175.493 138.677 175.414C138.74 175.336 138.787 175.245 138.815 175.148L138.851 175.073L138.921 175.239C138.93 175.262 138.943 175.282 138.961 175.299C138.978 175.316 138.998 175.33 139.021 175.339C139.043 175.349 139.067 175.354 139.092 175.354C139.116 175.354 139.14 175.349 139.162 175.34C139.185 175.331 139.205 175.318 139.222 175.301C139.24 175.284 139.253 175.264 139.262 175.242C139.272 175.219 139.276 175.196 139.276 175.172C139.276 175.148 139.271 175.124 139.262 175.101L139.063 174.627L139.302 174.125C139.319 174.089 139.328 174.05 139.33 174.011C139.331 173.971 139.324 173.932 139.31 173.895C139.295 173.858 139.273 173.824 139.245 173.795C139.217 173.767 139.184 173.744 139.147 173.729L137.917 173.217C137.876 173.199 137.831 173.192 137.786 173.194C137.741 173.196 137.698 173.209 137.659 173.23C137.62 173.252 137.586 173.282 137.561 173.319C137.535 173.355 137.519 173.397 137.512 173.441L137.32 174.719C137.264 174.915 137.289 175.125 137.39 175.304C137.491 175.482 137.659 175.615 137.857 175.672Z"
            fill="#3F3D56" />
        <path
            d="M141.685 165.871C141.378 165.759 141.218 165.422 141.328 165.119C141.439 164.816 141.777 164.66 142.085 164.772C142.392 164.884 142.552 165.221 142.442 165.524C142.331 165.828 141.992 165.983 141.685 165.871Z"
            fill="#308AF4" />
        <path
            d="M141.348 169.286C141.233 169.244 141.173 169.118 141.215 169.004C141.256 168.891 141.383 168.832 141.498 168.874C141.614 168.916 141.673 169.043 141.632 169.156C141.591 169.27 141.464 169.328 141.348 169.286Z"
            fill="#3F3D56" />
        <path
            d="M142.531 169.717C142.416 169.675 142.356 169.549 142.398 169.435C142.439 169.321 142.566 169.263 142.681 169.305C142.797 169.347 142.857 169.473 142.815 169.587C142.774 169.701 142.647 169.759 142.531 169.717Z"
            fill="#3F3D56" />
        <path
            d="M135.453 178.338L136.601 178.756C136.777 178.819 136.97 178.812 137.138 178.735C137.307 178.657 137.437 178.517 137.5 178.344L138.212 176.387L136.681 175.83L136.181 177.203L135.923 177.109C135.762 177.048 135.585 177.05 135.426 177.113C135.267 177.177 135.139 177.297 135.068 177.451C135.031 177.534 135.012 177.623 135.012 177.713C135.012 177.804 135.031 177.893 135.067 177.976C135.103 178.059 135.156 178.134 135.223 178.196C135.289 178.258 135.367 178.307 135.453 178.338Z"
            fill="#CCCCCC" />
        <path
            d="M147.558 176.611L148.853 175.917C149.042 175.815 149.182 175.643 149.242 175.439C149.302 175.234 149.278 175.014 149.174 174.826C149.07 174.638 148.895 174.498 148.687 174.437C148.48 174.375 148.258 174.398 148.069 174.499L146.773 175.194C146.632 175.27 146.518 175.385 146.444 175.526C146.369 175.667 146.339 175.826 146.357 175.985C146.375 176.143 146.44 176.293 146.543 176.416C146.647 176.539 146.785 176.628 146.939 176.674C146.985 176.688 147.031 176.697 147.078 176.703C147.244 176.722 147.412 176.69 147.558 176.611Z"
            fill="#CCCCCC" />
        <path
            d="M150.502 174.114C150.452 174.025 150.386 173.946 150.306 173.882C150.227 173.819 150.135 173.771 150.038 173.742C149.94 173.713 149.837 173.704 149.736 173.714C149.634 173.724 149.536 173.754 149.447 173.802L149.367 173.829L149.437 173.664C149.447 173.642 149.452 173.618 149.452 173.594C149.452 173.57 149.447 173.546 149.438 173.524C149.429 173.502 149.415 173.481 149.398 173.464C149.381 173.447 149.361 173.433 149.339 173.424C149.316 173.414 149.292 173.409 149.268 173.409C149.244 173.408 149.22 173.413 149.197 173.422C149.175 173.431 149.154 173.444 149.137 173.461C149.12 173.477 149.106 173.497 149.097 173.519L148.896 173.989L148.365 174.17C148.328 174.183 148.293 174.203 148.263 174.23C148.234 174.257 148.21 174.289 148.194 174.325C148.177 174.361 148.169 174.4 148.168 174.439C148.167 174.479 148.175 174.518 148.19 174.555L148.691 175.778C148.708 175.82 148.735 175.857 148.768 175.887C148.801 175.917 148.841 175.939 148.884 175.951C148.928 175.964 148.973 175.966 149.017 175.959C149.062 175.951 149.103 175.934 149.14 175.908L150.196 175.155C150.376 175.058 150.51 174.894 150.567 174.699C150.624 174.503 150.601 174.293 150.502 174.114Z"
            fill="#308AF4" />
        <path
            d="M145.293 180.894C144.948 180.519 145.132 179.798 145.704 179.284C146.276 178.77 147.019 178.657 147.364 179.033C147.709 179.408 147.525 180.129 146.953 180.643C146.381 181.157 145.638 181.27 145.293 180.894Z"
            fill="#CCCCCC" />
        <path
            d="M143.462 180.476C141.867 179.895 141.134 177.887 141.824 175.991C142.514 174.095 144.366 173.029 145.962 173.609C147.557 174.19 148.29 176.197 147.6 178.094C146.91 179.99 145.057 181.056 143.462 180.476Z"
            fill="#E6E6E6" />
        <path
            d="M144.215 180.763C143.854 180.402 144.008 179.674 144.557 179.136C145.107 178.599 145.844 178.455 146.205 178.816C146.565 179.177 146.412 179.905 145.862 180.443C145.313 180.98 144.575 181.124 144.215 180.763Z"
            fill="#CCCCCC" />
        <path
            d="M147.302 177.83C147.187 177.788 147.15 177.597 147.221 177.403C147.291 177.21 147.442 177.087 147.557 177.129C147.672 177.171 147.709 177.362 147.638 177.555C147.568 177.749 147.417 177.872 147.302 177.83Z"
            fill="#3F3D56" />
        <path
            d="M147.324 176.492C147.341 176.287 147.453 176.129 147.575 176.139C147.697 176.149 147.783 176.324 147.767 176.53C147.751 176.735 147.639 176.893 147.516 176.883C147.394 176.872 147.308 176.697 147.324 176.492Z"
            fill="#3F3D56" />
        <path
            d="M146.972 178.736C146.857 178.694 146.821 178.503 146.891 178.31C146.961 178.116 147.112 177.994 147.227 178.036C147.343 178.078 147.379 178.268 147.309 178.462C147.238 178.655 147.088 178.778 146.972 178.736Z"
            fill="#3F3D56" />
        <path
            d="M145.721 174.377C144.492 173.93 143.853 172.583 144.294 171.369C144.736 170.156 146.091 169.535 147.321 169.983C148.551 170.43 149.19 171.777 148.748 172.991C148.306 174.204 146.951 174.825 145.721 174.377Z"
            fill="#E6E6E6" />
        <path
            d="M144.88 170.844L148.568 172.186C148.688 172.23 148.82 172.225 148.935 172.172C149.051 172.119 149.14 172.023 149.183 171.905L149.308 171.561C149.729 170.405 149.592 167.738 148.308 167.271C147.024 166.803 145.205 168.758 144.784 169.915L144.634 170.327C144.598 170.427 144.603 170.538 144.649 170.635C144.695 170.732 144.778 170.807 144.88 170.844Z"
            fill="#308AF4" />
        <path
            d="M143.639 175.923C143.684 175.939 143.73 175.952 143.776 175.96C143.935 175.989 144.098 175.97 144.245 175.907C144.392 175.844 144.517 175.739 144.603 175.605C144.689 175.471 144.733 175.315 144.729 175.156C144.725 174.997 144.674 174.842 144.581 174.711L143.73 173.506C143.606 173.331 143.417 173.21 143.204 173.172C142.992 173.134 142.773 173.18 142.597 173.302C142.42 173.423 142.3 173.609 142.263 173.819C142.226 174.029 142.275 174.246 142.399 174.421L143.25 175.626C143.346 175.762 143.482 175.866 143.639 175.923Z"
            fill="#CCCCCC" />
        <path
            d="M141.724 172.067C141.808 172.01 141.902 171.969 142.001 171.948C142.101 171.927 142.204 171.925 142.304 171.943C142.405 171.962 142.501 171.999 142.587 172.054C142.673 172.109 142.748 172.18 142.806 172.263L142.866 172.323L142.876 172.143C142.877 172.119 142.883 172.096 142.894 172.074C142.904 172.053 142.919 172.034 142.937 172.018C142.955 172.002 142.976 171.99 142.999 171.982C143.022 171.974 143.047 171.971 143.071 171.972C143.095 171.974 143.119 171.98 143.141 171.991C143.163 172.002 143.182 172.016 143.198 172.035C143.215 172.053 143.227 172.074 143.235 172.096C143.243 172.119 143.246 172.143 143.245 172.167L143.216 172.678L143.611 173.079C143.639 173.107 143.661 173.141 143.675 173.178C143.69 173.215 143.697 173.254 143.695 173.294C143.694 173.334 143.685 173.372 143.668 173.408C143.651 173.444 143.627 173.476 143.597 173.502L142.606 174.371C142.572 174.4 142.532 174.422 142.489 174.433C142.446 174.445 142.401 174.447 142.356 174.439C142.312 174.43 142.27 174.412 142.234 174.386C142.198 174.359 142.168 174.325 142.147 174.285L141.536 173.136C141.418 172.968 141.371 172.762 141.406 172.561C141.442 172.361 141.556 172.183 141.724 172.067Z"
            fill="#308AF4" />
        <path
            d="M148.26 167.836C147.952 167.724 147.793 167.388 147.903 167.084C148.014 166.781 148.352 166.626 148.66 166.738C148.967 166.85 149.127 167.186 149.017 167.49C148.906 167.793 148.567 167.948 148.26 167.836Z"
            fill="#308AF4" />
        <path
            d="M147.704 172.611C147.589 172.569 147.529 172.442 147.57 172.329C147.612 172.215 147.739 172.157 147.854 172.199C147.97 172.241 148.029 172.367 147.988 172.481C147.947 172.594 147.82 172.653 147.704 172.611Z"
            fill="#3F3D56" />
        <path
            d="M148.47 172.889C148.355 172.847 148.295 172.721 148.336 172.607C148.377 172.493 148.505 172.435 148.62 172.477C148.735 172.519 148.795 172.645 148.754 172.759C148.712 172.873 148.585 172.931 148.47 172.889Z"
            fill="#3F3D56" />
        <path
            d="M141.588 170.068C141.59 170.069 141.592 170.07 141.594 170.07L143.545 170.686C143.567 170.696 143.591 170.698 143.613 170.691C143.636 170.685 143.655 170.671 143.668 170.651C143.688 170.614 143.669 170.568 143.622 170.539L141.922 169.498C141.896 169.482 141.864 169.475 141.834 169.478C141.82 169.479 141.807 169.483 141.796 169.489C141.785 169.496 141.775 169.505 141.768 169.516L141.518 169.941C141.511 169.952 141.508 169.965 141.509 169.978C141.51 169.991 141.514 170.004 141.521 170.015C141.537 170.04 141.56 170.059 141.588 170.068Z"
            fill="#FF6584" />
        <path
            d="M141.453 170.267C141.741 170.372 142.077 170.289 142.022 170.44C141.967 170.592 141.542 170.92 141.254 170.815C140.966 170.71 140.816 170.317 140.871 170.166C140.926 170.014 141.166 170.162 141.453 170.267Z"
            fill="white" />
        <path
            d="M147.506 173.558C147.794 173.663 148.129 173.581 148.074 173.732C148.019 173.883 147.594 174.211 147.306 174.107C147.019 174.002 146.868 173.609 146.923 173.457C146.978 173.306 147.218 173.454 147.506 173.558Z"
            fill="white" />
        <path
            d="M147.744 173.358C147.745 173.359 147.747 173.359 147.749 173.36L149.431 173.884C149.45 173.891 149.472 173.892 149.492 173.885C149.512 173.879 149.528 173.865 149.539 173.848C149.547 173.829 149.548 173.808 149.541 173.789C149.534 173.77 149.52 173.754 149.502 173.744L148.049 172.817C148.027 172.802 147.999 172.796 147.973 172.8C147.961 172.801 147.949 172.806 147.939 172.812C147.929 172.819 147.921 172.827 147.915 172.837L147.685 173.241C147.68 173.252 147.677 173.264 147.677 173.276C147.677 173.288 147.68 173.3 147.686 173.31C147.699 173.333 147.719 173.35 147.744 173.358Z"
            fill="#FF6584" />
        <path
            d="M124.348 177.018L152.011 187.086C152.796 187.371 153.66 187.337 154.413 186.991C155.167 186.646 155.749 186.018 156.031 185.244C156.064 185.153 156.059 185.053 156.017 184.965C155.976 184.876 155.9 184.808 155.808 184.775C155.716 184.741 155.614 184.745 155.525 184.786C155.437 184.826 155.368 184.9 155.335 184.991C155.119 185.583 154.674 186.063 154.098 186.327C153.522 186.591 152.861 186.617 152.261 186.4L124.598 176.331C124.506 176.297 124.404 176.301 124.316 176.342C124.227 176.383 124.159 176.457 124.125 176.548C124.092 176.639 124.097 176.739 124.139 176.828C124.181 176.916 124.256 176.984 124.348 177.018Z"
            fill="#3F3D56" />
        <path
            d="M128.247 174.86L151.351 183.269C151.49 183.319 151.603 183.422 151.666 183.554C151.728 183.686 151.736 183.837 151.686 183.974C151.636 184.111 151.533 184.222 151.4 184.283C151.267 184.343 151.115 184.349 150.976 184.299L148.715 183.476L148.265 184.712C148.205 184.876 148.082 185.009 147.922 185.082C147.763 185.155 147.58 185.162 147.414 185.102C147.248 185.041 147.112 184.918 147.037 184.76C146.961 184.601 146.953 184.42 147.012 184.256L147.462 183.02L140.155 180.36L139.705 181.596C139.645 181.76 139.522 181.893 139.363 181.966C139.203 182.04 139.02 182.047 138.854 181.986C138.688 181.926 138.552 181.803 138.477 181.644C138.402 181.485 138.393 181.304 138.452 181.14L138.902 179.904L131.595 177.245L131.145 178.481C131.086 178.645 130.962 178.778 130.803 178.851C130.643 178.924 130.46 178.931 130.294 178.871C130.128 178.81 129.992 178.687 129.917 178.529C129.842 178.37 129.833 178.189 129.893 178.025L130.342 176.789L127.872 175.89C127.733 175.839 127.62 175.737 127.558 175.604C127.495 175.472 127.488 175.321 127.537 175.185C127.587 175.048 127.69 174.937 127.823 174.876C127.956 174.815 128.108 174.809 128.247 174.86Z"
            fill="#3F3D56" />
    </g>
    <g clip-path="url(#clip3_0_1)">
        <path
            d="M112.075 176.001H113.343C113.438 176.001 113.532 175.981 113.619 175.943C113.705 175.905 113.784 175.849 113.848 175.779C113.914 175.709 113.964 175.627 113.996 175.536C114.028 175.446 114.041 175.349 114.034 175.254C114.019 175.073 113.937 174.906 113.805 174.784C113.672 174.663 113.5 174.597 113.321 174.599H113.036V173.042H111.345V175.261C111.345 175.457 111.422 175.645 111.559 175.784C111.696 175.923 111.881 176.001 112.075 176.001Z"
            fill="#CCCCCC" />
        <path
            d="M112.481 169.079L114.011 168.924C114.234 168.901 114.439 168.79 114.581 168.614C114.722 168.438 114.79 168.212 114.767 167.986C114.745 167.761 114.635 167.553 114.461 167.409C114.288 167.265 114.065 167.197 113.842 167.219L112.312 167.375C112.146 167.392 111.988 167.458 111.859 167.566C111.73 167.673 111.635 167.817 111.587 167.98C111.538 168.142 111.539 168.315 111.588 168.477C111.636 168.639 111.732 168.783 111.861 168.89C111.899 168.922 111.94 168.95 111.983 168.974C112.134 169.061 112.308 169.097 112.481 169.079Z"
            fill="#E6E6E6" />
        <path
            d="M116.336 167.827C116.326 167.72 116.295 167.617 116.244 167.522C116.194 167.427 116.126 167.344 116.044 167.276C115.962 167.208 115.868 167.157 115.766 167.126C115.665 167.095 115.558 167.084 115.453 167.095L115.365 167.089L115.5 166.956C115.519 166.938 115.533 166.917 115.543 166.894C115.553 166.87 115.559 166.845 115.559 166.819C115.559 166.794 115.555 166.768 115.546 166.745C115.536 166.721 115.522 166.699 115.505 166.681C115.487 166.662 115.466 166.648 115.443 166.638C115.42 166.627 115.395 166.622 115.37 166.622C115.344 166.621 115.319 166.626 115.296 166.635C115.272 166.645 115.251 166.659 115.233 166.677L114.847 167.056L114.263 167.017C114.221 167.015 114.179 167.021 114.14 167.035C114.101 167.049 114.065 167.071 114.034 167.099C114.004 167.128 113.979 167.162 113.962 167.201C113.945 167.239 113.936 167.281 113.935 167.323L113.912 168.723C113.911 168.77 113.921 168.817 113.941 168.86C113.961 168.903 113.99 168.941 114.026 168.97C114.063 169 114.105 169.021 114.151 169.032C114.196 169.042 114.243 169.042 114.289 169.032L115.614 168.722C115.827 168.701 116.022 168.594 116.158 168.426C116.293 168.258 116.358 168.043 116.336 167.827Z"
            fill="#3F3D56" />
        <path
            d="M111.191 174.171C109.428 174.171 108 172.428 108 170.278C108 168.128 109.428 166.385 111.191 166.385C112.953 166.385 114.381 168.128 114.381 170.278C114.381 172.428 112.953 174.171 111.191 174.171Z"
            fill="#E6E6E6" />
        <path
            d="M112.998 170.278C112.87 170.278 112.767 170.1 112.767 169.881C112.767 169.662 112.87 169.484 112.998 169.484C113.125 169.484 113.228 169.662 113.228 169.881C113.228 170.1 113.125 170.278 112.998 170.278Z"
            fill="#3F3D56" />
        <path
            d="M113.075 171.384C112.947 171.384 112.844 171.206 112.844 170.987C112.844 170.767 112.947 170.589 113.075 170.589C113.202 170.589 113.305 170.767 113.305 170.987C113.305 171.206 113.202 171.384 113.075 171.384Z"
            fill="#3F3D56" />
        <path
            d="M111.229 167.241C109.87 167.241 108.769 166.126 108.769 164.75C108.769 163.374 109.87 162.258 111.229 162.258C112.588 162.258 113.689 163.374 113.689 164.75C113.689 166.126 112.588 167.241 111.229 167.241Z"
            fill="#E6E6E6" />
        <path
            d="M109.153 164.01H113.228C113.361 164.01 113.488 163.956 113.581 163.862C113.675 163.767 113.728 163.638 113.728 163.504V163.115C113.728 161.803 112.417 160.584 110.999 160.584C109.58 160.584 108.731 161.803 108.731 163.115V163.582C108.731 163.695 108.775 163.804 108.855 163.884C108.934 163.965 109.041 164.01 109.153 164.01Z"
            fill="#3F3D56" />
        <path
            d="M110.922 161.246C110.582 161.246 110.306 160.967 110.306 160.623C110.306 160.279 110.582 160 110.922 160C111.261 160 111.537 160.279 111.537 160.623C111.537 160.967 111.261 161.246 110.922 161.246Z"
            fill="#308AF4" />
        <path
            d="M111.806 164.789C111.678 164.789 111.575 164.684 111.575 164.555C111.575 164.426 111.678 164.321 111.806 164.321C111.933 164.321 112.036 164.426 112.036 164.555C112.036 164.684 111.933 164.789 111.806 164.789Z"
            fill="#3F3D56" />
        <path
            d="M113.113 164.789C112.985 164.789 112.882 164.684 112.882 164.555C112.882 164.426 112.985 164.321 113.113 164.321C113.24 164.321 113.344 164.426 113.344 164.555C113.344 164.684 113.24 164.789 113.113 164.789Z"
            fill="#3F3D56" />
        <path
            d="M109.269 176.001H110.537C110.731 176.001 110.916 175.923 111.053 175.784C111.19 175.645 111.267 175.457 111.268 175.261V173.042H109.576V174.599H109.291C109.112 174.597 108.94 174.663 108.807 174.784C108.675 174.906 108.593 175.073 108.578 175.254C108.571 175.349 108.585 175.446 108.616 175.536C108.648 175.627 108.699 175.709 108.764 175.779C108.828 175.849 108.907 175.905 108.994 175.943C109.08 175.981 109.174 176.001 109.269 176.001Z"
            fill="#CCCCCC" />
        <path
            d="M112.318 165.484C112.32 165.484 112.322 165.484 112.324 165.484L114.446 165.39C114.47 165.392 114.494 165.384 114.514 165.37C114.534 165.355 114.548 165.334 114.554 165.31C114.56 165.265 114.525 165.226 114.469 165.214L112.441 164.792C112.409 164.785 112.376 164.789 112.347 164.803C112.335 164.809 112.323 164.818 112.315 164.829C112.306 164.839 112.3 164.852 112.297 164.866L112.204 165.382C112.201 165.396 112.203 165.41 112.208 165.423C112.213 165.436 112.222 165.447 112.233 165.455C112.257 165.474 112.287 165.485 112.318 165.484Z"
            fill="#FF6584" />
        <path
            d="M112.257 165.732C112.574 165.732 112.873 165.527 112.873 165.699C112.873 165.87 112.574 166.354 112.257 166.354C111.939 166.354 111.652 166.015 111.652 165.843C111.652 165.671 111.939 165.732 112.257 165.732Z"
            fill="#E6E6E6" />
        <path
            d="M114.277 172.611L118.999 173.991C119.148 174.035 119.308 174.016 119.443 173.941C119.579 173.865 119.679 173.737 119.723 173.587L120.977 169.185C121.02 169.034 121.002 168.872 120.927 168.735C120.852 168.597 120.727 168.496 120.578 168.452L115.856 167.072C115.707 167.028 115.547 167.046 115.411 167.122C115.275 167.198 115.175 167.325 115.132 167.476L113.877 171.878C113.834 172.029 113.852 172.191 113.927 172.328C114.002 172.466 114.128 172.567 114.277 172.611Z"
            fill="#308AF4" />
        <path
            d="M116.245 173.377L116.93 173.577C117.009 173.6 117.094 173.59 117.166 173.55C117.237 173.51 117.291 173.442 117.313 173.363L118.812 168.104C118.835 168.024 118.826 167.938 118.786 167.865C118.746 167.792 118.68 167.739 118.601 167.716L117.916 167.515C117.837 167.492 117.752 167.502 117.681 167.542C117.609 167.582 117.556 167.65 117.533 167.729L116.034 172.989C116.011 173.068 116.021 173.154 116.06 173.227C116.1 173.3 116.166 173.353 116.245 173.377Z"
            fill="#3F3D56" />
        <path
            d="M118.735 166.604C118.252 166.827 118.147 167.646 118.147 167.646C118.147 167.646 118.826 168.102 119.31 167.878C119.793 167.655 119.898 166.836 119.898 166.836C119.898 166.836 119.219 166.38 118.735 166.604Z"
            fill="#3F3D56" />
        <path
            d="M117.179 167.175C117.398 167.665 118.206 167.774 118.206 167.774C118.206 167.774 118.658 167.088 118.439 166.597C118.22 166.107 117.412 165.998 117.412 165.998C117.412 165.998 116.959 166.685 117.179 167.175Z"
            fill="#3F3D56" />
        <path
            d="M111.278 169.72L112.747 170.182C112.961 170.249 113.192 170.228 113.391 170.122C113.589 170.016 113.738 169.835 113.805 169.618C113.871 169.401 113.85 169.167 113.746 168.966C113.641 168.765 113.463 168.614 113.248 168.546L111.78 168.084C111.62 168.034 111.449 168.033 111.289 168.081C111.129 168.129 110.986 168.224 110.879 168.354C110.772 168.485 110.705 168.644 110.688 168.812C110.67 168.981 110.703 169.151 110.781 169.301C110.803 169.345 110.83 169.387 110.86 169.427C110.966 169.566 111.112 169.668 111.278 169.72Z"
            fill="#CCCCCC" />
        <path
            d="M115.31 170.092C115.342 169.989 115.353 169.882 115.343 169.775C115.334 169.668 115.303 169.564 115.254 169.469C115.205 169.374 115.137 169.29 115.056 169.221C114.974 169.152 114.88 169.1 114.779 169.069L114.7 169.029L114.876 168.96C114.9 168.95 114.922 168.937 114.94 168.919C114.958 168.901 114.973 168.88 114.983 168.857C114.993 168.833 114.999 168.808 114.999 168.783C115 168.757 114.996 168.732 114.987 168.708C114.977 168.684 114.964 168.662 114.946 168.644C114.929 168.625 114.908 168.61 114.885 168.6C114.862 168.59 114.837 168.584 114.812 168.583C114.787 168.583 114.762 168.587 114.738 168.596L114.236 168.793L113.713 168.526C113.676 168.508 113.636 168.496 113.594 168.494C113.552 168.491 113.511 168.497 113.472 168.512C113.432 168.526 113.396 168.548 113.366 168.577C113.335 168.605 113.311 168.64 113.294 168.678L112.733 169.958C112.714 170.002 112.705 170.049 112.707 170.096C112.709 170.143 112.721 170.189 112.743 170.231C112.765 170.273 112.796 170.309 112.834 170.337C112.871 170.364 112.915 170.383 112.961 170.391L114.3 170.63C114.504 170.694 114.726 170.674 114.915 170.573C115.105 170.472 115.247 170.299 115.31 170.092Z"
            fill="#3F3D56" />
    </g>
    <path
        d="M253.57 49.3742L253.569 49.3738C252.985 49.1875 252.493 48.9144 252.125 48.5347L252.122 48.532L252.122 48.532C251.767 48.1611 251.52 47.7213 251.38 47.2206C251.247 46.7462 251.184 46.2307 251.184 45.6777V42.5674C251.184 42.0074 251.244 41.4836 251.371 40.999L251.372 40.9943L251.372 40.9943C251.511 40.4824 251.756 40.0302 252.108 39.6458C252.475 39.2451 252.967 38.9551 253.555 38.7575L253.556 38.7571L253.556 38.7571C254.158 38.5564 254.898 38.4648 255.758 38.4648C256.589 38.4648 257.309 38.5616 257.897 38.7751C258.474 38.9844 258.954 39.2893 259.309 39.7058C259.648 40.0991 259.883 40.5579 260.015 41.0742C260.146 41.5672 260.209 42.0954 260.209 42.6562V45.582C260.209 46.1264 260.145 46.6418 260.014 47.1261M253.57 49.3742L251.854 41.125C251.973 40.6875 252.18 40.307 252.477 39.9834C252.773 39.6598 253.185 39.4092 253.714 39.2314C254.247 39.0537 254.928 38.9648 255.758 38.9648C256.555 38.9648 257.212 39.0583 257.727 39.2451C258.242 39.432 258.643 39.694 258.93 40.0312C259.217 40.3639 259.417 40.7536 259.531 41.2002C259.65 41.6468 259.709 42.1322 259.709 42.6562V45.582C259.709 46.0879 259.65 46.5596 259.531 46.9971C259.417 47.43 259.215 47.8083 258.923 48.1318M253.57 49.3742C254.169 49.5637 254.904 49.6504 255.758 49.6504C256.583 49.6504 257.297 49.5585 257.883 49.3564L257.883 49.3564L257.887 49.3551C258.459 49.1524 258.938 48.862 259.294 48.4663M253.57 49.3742L257.72 48.8838M260.014 47.1261C260.014 47.1266 260.014 47.1272 260.014 47.1278L259.531 46.9971L260.015 47.1243C260.015 47.1249 260.014 47.1255 260.014 47.1261ZM260.014 47.1261C259.881 47.6331 259.641 48.0823 259.294 48.4663M259.294 48.4663L258.923 48.1318M259.294 48.4663C259.294 48.4664 259.294 48.4665 259.294 48.4666L258.923 48.1318M258.923 48.1318C258.636 48.4508 258.235 48.7015 257.72 48.8838M257.72 48.8838C257.205 49.0615 256.551 49.1504 255.758 49.1504C254.933 49.1504 254.254 49.0661 253.721 48.8975L257.72 48.8838ZM257.626 46.9713L257.626 46.9713L257.624 46.976C257.512 47.1655 257.338 47.3076 257.061 47.3939C256.746 47.4883 256.317 47.543 255.758 47.543C255.205 47.543 254.763 47.4888 254.42 47.3918C254.119 47.3022 253.921 47.1524 253.789 46.9536C253.661 46.7599 253.564 46.4263 253.564 45.8896V42.3145C253.564 41.7762 253.66 41.4287 253.793 41.217C253.934 41.0008 254.139 40.8426 254.44 40.747L254.44 40.747L254.445 40.7454C254.78 40.6348 255.214 40.5723 255.758 40.5723C256.308 40.5723 256.728 40.6353 257.035 40.7425L257.035 40.7426L257.042 40.7448C257.319 40.8372 257.501 40.9884 257.622 41.1973C257.746 41.4132 257.835 41.7686 257.835 42.3145V45.8896C257.835 46.4323 257.746 46.7734 257.626 46.9713Z"
        fill="#1C92C2" stroke="#F2F5F6" />
    <path
        d="M245.106 49V49.5H245.606H246.98H247.48V49V40.7432H249.838H250.338V40.2432V39.1152V38.6152H249.838H242.756H242.256V39.1152V40.2432V40.7432H242.756H245.106V49Z"
        fill="#1C92C2" stroke="#F2F5F6" />
    <path
        d="M231.586 38.6152H231.086V39.1152V49V49.5H231.586H237.841H238.341V49V47.9746V47.4746H237.841H233.46V44.9199H237.198H237.698V44.4199V43.3945V42.8945H237.198H233.46V40.6406H237.759H238.259V40.1406V39.1152V38.6152H237.759H231.586Z"
        fill="#1C92C2" stroke="#F2F5F6" />
    <path
        d="M218.932 49V49.5H219.432H220.744H221.244V49V43.1192L223.093 46.1308L223.24 46.3691H223.52H224.538H224.819L224.965 46.1297L226.807 43.1131V49V49.5H227.307H228.605H229.105V49V39.1152V38.6152H228.605H227.389H227.108L226.962 38.8552L224.057 43.6273L221.122 38.8534L220.976 38.6152H220.696H219.432H218.932V39.1152V49Z"
        fill="#1C92C2" stroke="#F2F5F6" />
    <path
        d="M210.531 49.3742L210.53 49.3738C209.946 49.1875 209.454 48.9144 209.085 48.5347L209.083 48.532L209.083 48.532C208.728 48.1611 208.481 47.7213 208.341 47.2206C208.208 46.7462 208.145 46.2307 208.145 45.6777V42.5674C208.145 42.0074 208.205 41.4836 208.332 40.999L208.333 40.9943L208.333 40.9943C208.471 40.4824 208.717 40.0302 209.069 39.6458C209.436 39.2451 209.928 38.9551 210.515 38.7575L210.517 38.7571L210.517 38.7571C211.119 38.5564 211.859 38.4648 212.719 38.4648C213.55 38.4648 214.27 38.5616 214.858 38.7751C215.435 38.9844 215.915 39.2893 216.27 39.7058C216.609 40.0991 216.844 40.5579 216.976 41.0742C217.107 41.5672 217.17 42.0954 217.17 42.6562V45.582C217.17 46.1264 217.106 46.6418 216.975 47.1261M210.531 49.3742L208.815 41.125C208.934 40.6875 209.141 40.307 209.438 39.9834C209.734 39.6598 210.146 39.4092 210.675 39.2314C211.208 39.0537 211.889 38.9648 212.719 38.9648C213.516 38.9648 214.173 39.0583 214.688 39.2451C215.202 39.432 215.604 39.694 215.891 40.0312C216.178 40.3639 216.378 40.7536 216.492 41.2002C216.611 41.6468 216.67 42.1322 216.67 42.6562V45.582C216.67 46.0879 216.611 46.5596 216.492 46.9971C216.378 47.43 216.175 47.8083 215.884 48.1318M210.531 49.3742C211.13 49.5637 211.865 49.6504 212.719 49.6504C213.544 49.6504 214.258 49.5585 214.844 49.3564L214.844 49.3564L214.848 49.3551C215.42 49.1524 215.899 48.862 216.255 48.4663M210.531 49.3742L214.681 48.8838M216.975 47.1261C216.975 47.1266 216.975 47.1272 216.975 47.1278L216.492 46.9971L216.976 47.1243C216.976 47.1249 216.975 47.1255 216.975 47.1261ZM216.975 47.1261C216.842 47.6331 216.601 48.0823 216.255 48.4663M216.255 48.4663L215.884 48.1318M216.255 48.4663C216.255 48.4664 216.255 48.4665 216.255 48.4666L215.884 48.1318M215.884 48.1318C215.597 48.4508 215.196 48.7015 214.681 48.8838M214.681 48.8838C214.166 49.0615 213.512 49.1504 212.719 49.1504C211.894 49.1504 211.215 49.0661 210.682 48.8975L214.681 48.8838ZM214.587 46.9713L214.587 46.9713L214.585 46.976C214.473 47.1655 214.299 47.3076 214.022 47.3939C213.707 47.4883 213.278 47.543 212.719 47.543C212.166 47.543 211.724 47.4888 211.381 47.3918C211.08 47.3022 210.882 47.1524 210.75 46.9536C210.622 46.7599 210.525 46.4263 210.525 45.8896V42.3145C210.525 41.7762 210.621 41.4287 210.754 41.217C210.895 41.0008 211.1 40.8426 211.401 40.747L211.401 40.747L211.406 40.7454C211.741 40.6348 212.175 40.5723 212.719 40.5723C213.269 40.5723 213.689 40.6353 213.996 40.7425L213.996 40.7426L214.003 40.7448C214.28 40.8372 214.462 40.9884 214.583 41.1973C214.707 41.4132 214.796 41.7686 214.796 42.3145V45.8896C214.796 46.4323 214.707 46.7734 214.587 46.9713Z"
        fill="#1C92C2" stroke="#F2F5F6" />
    <path
        d="M199.03 48.5204L199.03 48.5204L199.035 48.5261C199.391 48.9109 199.875 49.186 200.451 49.373C201.039 49.5639 201.769 49.6504 202.622 49.6504C203.434 49.6504 204.122 49.5784 204.669 49.4186C205.211 49.2613 205.671 49.0201 206.006 48.6675C206.326 48.3301 206.539 47.9216 206.649 47.4554C206.756 47.0175 206.807 46.5329 206.807 46.0059V45.9375V45.4375H206.307H205.001H204.501V45.9375V46.1016C204.501 46.6652 204.423 46.9929 204.332 47.157L204.33 47.1594C204.259 47.2892 204.142 47.3879 203.914 47.4388L203.913 47.4391C203.623 47.5049 203.207 47.543 202.649 47.543C202.097 47.543 201.664 47.4887 201.338 47.3934C201.06 47.3067 200.878 47.1625 200.757 46.9667C200.636 46.77 200.545 46.4308 200.545 45.8896V42.3213C200.545 41.7755 200.634 41.42 200.758 41.2041L200.758 41.2041L200.76 41.2015C200.882 40.9865 201.063 40.8351 201.333 40.7443L201.333 40.7443L201.338 40.7425C201.645 40.6351 202.063 40.5723 202.608 40.5723C203.177 40.5723 203.598 40.617 203.891 40.6929C204.12 40.7525 204.246 40.8612 204.324 41.0123L204.324 41.0124L204.327 41.0178C204.424 41.2001 204.501 41.5448 204.501 42.1162V42.3008V42.8473L205.045 42.7988L206.351 42.6826L206.807 42.642V42.1846V42.0957C206.807 41.5524 206.749 41.0572 206.625 40.6165C206.498 40.1465 206.269 39.739 205.933 39.4081C205.586 39.0678 205.127 38.8358 204.588 38.6882C204.045 38.5349 203.381 38.4648 202.608 38.4648C201.749 38.4648 201.014 38.5562 200.423 38.7584L200.423 38.7584L200.422 38.7588C199.846 38.9575 199.365 39.2498 199.012 39.6545L199.012 39.6545L199.009 39.6576C198.676 40.0456 198.45 40.5019 198.328 41.0165L198.328 41.0165L198.327 41.0201C198.217 41.4998 198.164 42.0186 198.164 42.5742V45.6777C198.164 46.2262 198.22 46.7366 198.336 47.206L198.336 47.206L198.337 47.2109C198.465 47.7082 198.696 48.1478 199.03 48.5204Z"
        fill="#1C92C2" stroke="#F2F5F6" />
    <path
        d="M191.076 38.6152H190.576V39.1152V49V49.5H191.076H196.887H197.387V49V47.9404V47.4404H196.887H192.95V39.1152V38.6152H192.45H191.076Z"
        fill="#1C92C2" stroke="#F2F5F6" />
    <path
        d="M182.49 38.6152H181.99V39.1152V49V49.5H182.49H188.745H189.245V49V47.9746V47.4746H188.745H184.364V44.9199H188.103H188.603V44.4199V43.3945V42.8945H188.103H184.364V40.6406H188.663H189.163V40.1406V39.1152V38.6152H188.663H182.49Z"
        fill="#1C92C2" stroke="#F2F5F6" />
    <path
        d="M167.766 38.6152H167.104L167.285 39.2516L170.087 49.1364L170.19 49.5H170.568H171.607H171.981L172.087 49.1413L174.082 42.37L176.021 49.1377L176.125 49.5H176.502H177.541H177.923L178.023 49.1314L180.717 39.2467L180.889 38.6152H180.234H178.983H178.598L178.5 38.9874L176.965 44.7912L175.224 38.972L175.117 38.6152H174.745H173.275H172.898L172.795 38.9776L171.128 44.7969L169.505 38.9808L169.403 38.6152H169.023H167.766Z"
        fill="#1C92C2" stroke="#F2F5F6" />
    <path
        d="M343.105 79.875V80.875H344.105C345.736 80.875 347.164 80.6102 348.338 80.0194C349.535 79.4247 350.429 78.4991 350.999 77.2766C351.565 76.0786 351.82 74.6241 351.82 72.9609V66.3281C351.82 64.6809 351.565 63.2425 350.996 62.0644C350.423 60.856 349.527 59.9443 348.331 59.3599C347.165 58.7868 345.739 58.5312 344.105 58.5312H343.105V59.5312V62.0742V63.0742H344.105C344.907 63.0742 345.424 63.1882 345.732 63.3375C345.977 63.4559 346.166 63.6501 346.296 64.0031L346.299 64.0109L346.302 64.0187C346.456 64.415 346.562 65.0506 346.562 65.9883V73.3711C346.562 74.2976 346.457 74.9428 346.299 75.361L346.299 75.3609L346.295 75.3721C346.164 75.7313 345.97 75.9341 345.715 76.0599L345.715 76.0598L345.709 76.0626C345.404 76.2153 344.895 76.332 344.105 76.332H343.105V77.332V79.875Z"
        fill="#276D8F" stroke="#F2F5F6" stroke-width="2" />
    <path
        d="M325.062 59.7031H324.062V60.7031V78V79H325.062H328.191H329.191V78V69.2676L336.351 78.6083L336.651 79H337.145H339.758H340.758V78V60.7031V59.7031H339.758H336.664H335.664V60.7031V69.5909L328.473 60.0992L328.173 59.7031H327.676H325.062Z"
        fill="#276D8F" stroke="#F2F5F6" stroke-width="2" />
    <path
        d="M311.234 74.3984H310.234V75.3984V78V79H311.234H320.984H321.984V78V75.3984V74.3984H320.984H318.855V64.293H320.984H321.984V63.293V60.7031V59.7031H320.984H311.234H310.234V60.7031V63.293V64.293H311.234H313.387V74.3984H311.234Z"
        fill="#276D8F" stroke="#F2F5F6" stroke-width="2" />
    <path
        d="M296.445 59.7031H295.445V60.7031V78V79H296.445H307.906H308.906V78V75.375V74.375H307.906H300.914V71.4297H306.887H307.887V70.4297V67.9219V66.9219H306.887H300.914V64.3281H307.777H308.777V63.3281V60.7031V59.7031H307.777H296.445Z"
        fill="#276D8F" stroke="#F2F5F6" stroke-width="2" />
    <path
        d="M277.414 59.7031H276.414V60.7031V78V79H277.414H280.906H281.906V78V71.793H287.5V78V79H288.5H291.992H292.992V78V60.7031V59.7031H291.992H288.5H287.5V60.7031V67.0625H281.906V60.7031V59.7031H280.906H277.414Z"
        fill="#276D8F" stroke="#F2F5F6" stroke-width="2" />
    <path
        d="M265.457 78V79H266.457H269.926H270.926V78V64.3516H274.742H275.742V63.3516V60.7031V59.7031H274.742H261.641H260.641V60.7031V63.3516V64.3516H261.641H265.457V78Z"
        fill="#276D8F" stroke="#F2F5F6" stroke-width="2" />
    <path
        d="M244.12 77.6873L243.688 79H245.07H248.703H249.445L249.66 78.2898L250.442 75.707H255.744L256.497 78.281L256.708 79H257.457H261.148H262.536L262.097 77.6838L256.331 60.3869L256.104 59.7031H255.383H250.766H250.042L249.816 60.3904L244.12 77.6873ZM253.138 66.8048L254.369 71.0117H251.864L253.138 66.8048Z"
        fill="#276D8F" stroke="#F2F5F6" stroke-width="2" />
    <path
        d="M231.242 59.7031H230.242V60.7031V78V79H231.242H234.723H235.723V78V73.0352H237.688C239.268 73.0352 240.623 72.8212 241.679 72.3172C242.763 71.804 243.564 70.9964 244.032 69.9116L244.033 69.9085C244.471 68.8837 244.664 67.6401 244.664 66.2227C244.664 64.1413 244.172 62.4019 242.95 61.2711C241.762 60.1639 240.056 59.7031 238.027 59.7031H231.242ZM239.255 64.9781L239.257 64.9855L239.259 64.993C239.353 65.3855 239.406 65.8514 239.406 66.3984C239.406 67.0363 239.351 67.5213 239.261 67.8747C239.188 68.1634 239.081 68.2831 238.999 68.3427C238.925 68.3964 238.716 68.4922 238.238 68.4922H235.723V64.1758H238.355C238.728 64.1758 238.867 64.2709 238.923 64.3258L238.923 64.3259L238.933 64.3353C239.058 64.4534 239.18 64.6451 239.255 64.9781Z"
        fill="#276D8F" stroke="#F2F5F6" stroke-width="2" />
    <path
        d="M227.094 80.875H228.094V79.875V77.3438V76.3438H227.094C226.36 76.3438 225.846 76.2474 225.504 76.1066C225.26 76.0004 225.061 75.8146 224.909 75.4655C224.751 75.0822 224.637 74.43 224.637 73.4297V66.0469C224.637 65.0363 224.755 64.377 224.92 63.9885C225.075 63.624 225.278 63.4369 225.521 63.3325L225.521 63.3326L225.532 63.3273C225.868 63.1776 226.372 63.0742 227.094 63.0742H228.094V62.0742V59.5312V58.5312H227.094C225.289 58.5312 223.745 58.833 222.556 59.5364C221.39 60.2178 220.545 61.1945 220.048 62.4423L220.048 62.4423L220.046 62.446C219.584 63.6195 219.367 64.96 219.367 66.4453V73.0781C219.367 74.719 219.619 76.1548 220.178 77.3376L220.178 77.3377L220.182 77.3461C220.763 78.5457 221.663 79.4513 222.857 80.0346C224.035 80.6144 225.464 80.875 227.094 80.875Z"
        fill="#276D8F" stroke="#F2F5F6" stroke-width="2" />
    <path
        d="M203.407 76.309L203.011 77.1528L203.825 77.6074C204.79 78.1463 205.912 78.5585 207.177 78.8562C208.445 79.1544 209.709 79.3047 210.969 79.3047C212.398 79.3047 213.659 79.0523 214.684 78.4718C215.672 77.9128 216.429 77.1416 216.916 76.1585L216.917 76.155C217.382 75.2078 217.605 74.1683 217.605 73.0547C217.605 71.5635 217.285 70.2584 216.521 69.2594C215.777 68.2881 214.703 67.6304 213.391 67.2341L213.388 67.2333L210.451 66.3556C210.45 66.3554 210.449 66.3552 210.449 66.355C209.611 66.1005 209.229 65.8687 209.099 65.7399C209.025 65.6595 208.922 65.4816 208.922 65.0625C208.922 64.5785 209.066 64.49 209.16 64.4425L209.16 64.4426L209.17 64.4371C209.497 64.2662 210.021 64.1406 210.816 64.1406C211.579 64.1406 212.293 64.2324 212.96 64.4112C213.665 64.6003 214.307 64.8341 214.887 65.1101L215.848 65.567L216.244 64.58L217.229 62.1307L217.552 61.3263L216.801 60.8922C215.912 60.3776 214.938 60.0027 213.886 59.7632C212.842 59.5255 211.716 59.4102 210.512 59.4102C209.276 59.4102 208.129 59.6019 207.085 60.0033C206.021 60.407 205.143 61.0374 204.487 61.905L204.487 61.905L204.483 61.9107C203.804 62.8229 203.5 63.9368 203.5 65.1797C203.5 66.007 203.615 66.7947 203.853 67.5361L203.852 67.5361L203.856 67.5467C204.123 68.3479 204.583 69.0442 205.216 69.6289L205.222 69.6342L205.227 69.6395C205.894 70.2368 206.772 70.6694 207.799 70.9774L207.799 70.9774L207.804 70.979L210.757 71.8462L210.759 71.8466C211.417 72.0389 211.81 72.2211 212.014 72.3631L212.025 72.3707L212.036 72.3779C212.275 72.5354 212.328 72.6422 212.337 72.6644L212.337 72.6644L212.341 72.6737C212.395 72.8054 212.43 72.9672 212.43 73.1719C212.43 73.5472 212.376 73.8469 212.29 74.0856L212.29 74.0856L212.286 74.0973C212.25 74.1994 212.184 74.2974 212.008 74.3945L212.008 74.3945L212 74.399C211.863 74.4763 211.534 74.5742 210.887 74.5742C209.906 74.5742 209.006 74.4458 208.181 74.1966C207.304 73.9214 206.572 73.6233 205.976 73.3076L205.049 72.817L204.603 73.766L203.407 76.309Z"
        fill="#276D8F" stroke="#F2F5F6" stroke-width="2" />
    <path
        d="M190.531 78.8119L190.531 78.8119L190.541 78.8148C191.634 79.1525 192.994 79.3047 194.586 79.3047C196.138 79.3047 197.459 79.1527 198.507 78.8097C199.526 78.4758 200.387 77.9808 201.001 77.2725L201.001 77.2726L201.006 77.2671C201.579 76.5976 201.959 75.817 202.149 74.9429C202.323 74.1444 202.406 73.2871 202.406 72.375V72.0586V71.0586H201.406H197.996H196.996V72.0586V72.6094C196.996 73.3743 196.897 73.8248 196.787 74.057L196.787 74.057L196.784 74.0643C196.721 74.2005 196.617 74.3147 196.364 74.3963C196.009 74.5022 195.436 74.5742 194.598 74.5742C193.784 74.5742 193.165 74.5041 192.717 74.3868C192.361 74.2852 192.167 74.1279 192.048 73.9487C191.924 73.7555 191.801 73.3725 191.801 72.6797V66.1406C191.801 65.4353 191.926 65.0402 192.055 64.8377L192.055 64.8377L192.059 64.8308C192.187 64.6258 192.386 64.4612 192.737 64.3574L192.737 64.3574L192.745 64.3548C193.18 64.2218 193.784 64.1406 194.586 64.1406C195.421 64.1406 195.973 64.2282 196.305 64.3495L196.305 64.3496L196.319 64.3542C196.572 64.4428 196.7 64.5712 196.782 64.7509L196.782 64.751L196.784 64.757C196.898 65.0019 196.996 65.4574 196.996 66.2109V67.0898V68.2135L198.112 68.0831L201.522 67.6846L202.406 67.5814V66.6914V66.4805C202.406 65.544 202.319 64.6653 202.136 63.8491C201.939 62.956 201.552 62.1604 200.97 61.482C200.351 60.7592 199.488 60.2544 198.465 59.9185C197.423 59.566 196.116 59.4102 194.586 59.4102C192.985 59.4102 191.617 59.5702 190.518 59.9268C189.447 60.267 188.542 60.7729 187.884 61.4927L187.883 61.4927L187.878 61.4984C187.265 62.1791 186.845 62.9795 186.62 63.8825L186.62 63.8825L186.618 63.8897C186.417 64.7192 186.32 65.6078 186.32 66.5508V72.3281C186.32 73.2529 186.422 74.1269 186.633 74.9452C186.862 75.8327 187.292 76.616 187.917 77.2794C188.574 77.9777 189.471 78.473 190.531 78.8119Z"
        fill="#276D8F" stroke="#F2F5F6" stroke-width="2" />
    <path
        d="M172.391 78.8274L172.393 78.8281C173.474 79.1558 174.796 79.3047 176.328 79.3047C177.847 79.3047 179.156 79.1476 180.216 78.7971C181.249 78.4559 182.123 77.9583 182.768 77.2621C183.386 76.597 183.817 75.8209 184.055 74.9458C184.276 74.1334 184.383 73.275 184.383 72.375V60.6914V59.6914H183.383H179.902H178.902V60.6914V72.668C178.902 73.3221 178.787 73.7007 178.662 73.9043C178.545 74.0959 178.359 74.2565 178.024 74.365L178.024 74.365L178.02 74.3663C177.633 74.4934 177.08 74.5742 176.328 74.5742C175.599 74.5742 175.016 74.4991 174.562 74.3694C174.185 74.2529 173.956 74.0755 173.806 73.862C173.672 73.6708 173.543 73.3117 173.543 72.668V60.6914V59.6914H172.543H169.062H168.062V60.6914V72.5156C168.062 73.4255 168.174 74.2858 168.406 75.09L168.406 75.0901L168.409 75.0998C168.668 75.9629 169.122 76.72 169.762 77.3595L169.762 77.3595L169.767 77.3647C170.444 78.032 171.34 78.5059 172.391 78.8274Z"
        fill="#276D8F" stroke="#F2F5F6" stroke-width="2" />
    <defs>
        <filter id="filter0_d_0_1" x="52.4231" y="35.4232" width="37.1536" height="37.1536"
            filterUnits="userSpaceOnUse" color-interpolation-filters="sRGB">
            <feFlood flood-opacity="0" result="BackgroundImageFix" />
            <feColorMatrix in="SourceAlpha" type="matrix"
                values="0 0 0 0 0 0 0 0 0 0 0 0 0 0 0 0 0 0 127 0" result="hardAlpha" />
            <feOffset dy="4" />
            <feGaussianBlur stdDeviation="2" />
            <feComposite in2="hardAlpha" operator="out" />
            <feColorMatrix type="matrix" values="0 0 0 0 0 0 0 0 0 0 0 0 0 0 0 0 0 0 0.25 0" />
            <feBlend mode="normal" in2="BackgroundImageFix" result="effect1_dropShadow_0_1" />
            <feBlend mode="normal" in="SourceGraphic" in2="effect1_dropShadow_0_1" result="shape" />
        </filter>
        <radialGradient id="paint0_radial_0_1" cx="0" cy="0" r="1" gradientUnits="userSpaceOnUse"
            gradientTransform="translate(29 2.5) scale(29 2.5)">
            <stop />
            <stop offset="1" stop-color="#D9D9D9" stop-opacity="0.3" />
        </radialGradient>
        <radialGradient id="paint1_radial_0_1" cx="0" cy="0" r="1" gradientUnits="userSpaceOnUse"
            gradientTransform="translate(27 2.5) scale(27 2.5)">
            <stop />
            <stop offset="1" stop-color="#D9D9D9" stop-opacity="0.3" />
        </radialGradient>
        <linearGradient id="paint2_linear_0_1" x1="195" y1="232" x2="195" y2="257"
            gradientUnits="userSpaceOnUse">
            <stop stop-color="#F2F5F6" stop-opacity="0.1" />
            <stop offset="0.75" stop-color="#F2F5F6" />
            <stop offset="1" stop-color="#F2F5F6" />
        </linearGradient>
        <clipPath id="clip0_0_1">
            <rect width="54" height="68" fill="white" transform="matrix(-1 0 0 1 376 131)" />
        </clipPath>
        <clipPath id="clip1_0_1">
            <rect width="52" height="68" fill="white" transform="matrix(-1 0 0 1 329 161)" />
        </clipPath>
        <clipPath id="clip2_0_1">
            <rect width="32.9559" height="17.976" fill="white"
                transform="matrix(-0.939693 -0.34202 -0.34202 0.939693 161.117 171.272)" />
        </clipPath>
        <clipPath id="clip3_0_1">
            <rect width="13" height="16" fill="white" transform="matrix(-1 0 0 1 121 160)" />
        </clipPath>
    </defs>
</svg>