<svg width="150" height="50" viewBox="0 0 150 50" fill="none" xmlns="http://www.w3.org/2000/svg">
<rect x="-53" y="56.7107" width="100" height="10" transform="rotate(-45 -53 56.7107)" fill="#FF4848"/>
<rect x="-39.2183" y="56.7107" width="100" height="10" transform="rotate(-45 -39.2183 56.7107)" fill="white"/>
<rect x="-25.4365" y="56.7107" width="100" height="10" transform="rotate(-45 -25.4365 56.7107)" fill="#FF4848"/>
<rect x="-11.6548" y="56.7107" width="100" height="10" transform="rotate(-45 -11.6548 56.7107)" fill="white"/>
<rect x="2.12695" y="56.7107" width="100" height="10" transform="rotate(-45 2.12695 56.7107)" fill="#FF4848"/>
<rect x="15.9087" y="56.7107" width="100" height="10" transform="rotate(-45 15.9087 56.7107)" fill="white"/>
<rect x="29.6904" y="56.7107" width="100" height="10" transform="rotate(-45 29.6904 56.7107)" fill="#FF4848"/>
<rect x="43.4722" y="56.7107" width="100" height="10" transform="rotate(-45 43.4722 56.7107)" fill="white"/>
<rect x="57.2539" y="56.7107" width="100" height="10" transform="rotate(-45 57.2539 56.7107)" fill="#FF4848"/>
<rect x="71.0356" y="56.7107" width="100" height="10" transform="rotate(-45 71.0356 56.7107)" fill="white"/>
<rect x="84.8174" y="56.7107" width="100" height="10" transform="rotate(-45 84.8174 56.7107)" fill="#FF4848"/>
<rect x="98.5991" y="56.7107" width="100" height="10" transform="rotate(-45 98.5991 56.7107)" fill="white"/>
<rect x="112.381" y="56.7107" width="100" height="10" transform="rotate(-45 112.381 56.7107)" fill="#FF4848"/>
<rect x="126.163" y="56.7107" width="100" height="10" transform="rotate(-45 126.163 56.7107)" fill="white"/>
</svg>
