<svg width="23" height="23" viewBox="0 0 23 23" fill="none" xmlns="http://www.w3.org/2000/svg">
    <g clip-path="url(#clip0_130_500)">
        <path
            d="M22.3957 20.4994C22.2675 20.3073 19.1702 15.7891 11.6872 15.7891C4.20628 15.7891 1.10755 20.3073 0.979378 20.4994C0.561361 21.1283 0.730892 21.9759 1.35843 22.3953C1.98597 22.8133 2.83499 22.6438 3.25438 22.0163C3.2783 21.9814 5.65379 18.5234 11.6872 18.5234C17.6399 18.5234 20.027 21.8826 20.1207 22.0163C20.3849 22.4114 20.8176 22.625 21.2609 22.625C21.52 22.625 21.7842 22.5501 22.0166 22.3953C22.6442 21.9763 22.8151 21.1283 22.3957 20.4994Z"
            fill="#394240" />
        <path
            d="M11.6872 14.4219C14.7073 14.4219 17.1559 11.9746 17.1559 8.95312V6.21875C17.1559 3.19727 14.7073 0.75 11.6872 0.75C8.66708 0.75 6.21844 3.19727 6.21844 6.21875V8.95312C6.21844 11.9746 8.66708 14.4219 11.6872 14.4219ZM8.95282 6.21875C8.95282 4.70869 10.1785 3.48438 11.6872 3.48438C13.1986 3.48438 14.4216 4.70869 14.4216 6.21875V8.95312C14.4216 10.4632 13.1986 11.6875 11.6872 11.6875C10.1785 11.6875 8.95282 10.4632 8.95282 8.95312V6.21875Z"
            fill="#394240" />
    </g>
    <defs>
        <clipPath id="clip0_130_500">
            <rect width="21.875" height="21.875" fill="white" transform="translate(0.75 0.75)" />
        </clipPath>
    </defs>
</svg>