<svg width="80" height="80" viewBox="0 0 80 80" fill="none" xmlns="http://www.w3.org/2000/svg">
<circle cx="40" cy="40" r="27" fill="#F2F5F6"/>
<path d="M76.2289 46.6749C75.3452 45.5661 75.5089 43.9111 76.5914 42.9961L76.6877 42.9136C77.7702 41.9986 77.7702 40.5011 76.6877 39.5861L76.5914 39.5036C75.5089 38.5886 75.3452 36.9323 76.2289 35.8248L76.3077 35.7248C77.1914 34.6161 76.9002 33.1486 75.6577 32.4623L75.5464 32.3998C74.3064 31.7136 73.8227 30.1223 74.4739 28.8623L74.5327 28.7473C75.1839 27.4873 74.6102 26.1048 73.2577 25.6735L73.1377 25.6348C71.7864 25.2035 71.0002 23.7348 71.3927 22.3735L71.4264 22.251C71.8177 20.8898 70.9839 19.6448 69.5777 19.4848L69.4527 19.4698C68.0439 19.311 66.9889 18.0248 67.1052 16.6123L67.1164 16.4835C67.2352 15.0723 66.1764 14.0122 64.7626 14.1297L64.6376 14.141C63.2239 14.2597 61.9401 13.2047 61.7789 11.796L61.7626 11.6685C61.6026 10.2597 60.3576 9.42723 58.9964 9.81973L58.8739 9.85348C57.5114 10.2447 56.0426 9.46223 55.6114 8.11097L55.5751 7.98847C55.1439 6.63972 53.7588 6.06597 52.5001 6.71472L52.3876 6.77472C51.1288 7.42472 49.5363 6.94097 48.8513 5.70096L48.7876 5.58971C48.1026 4.34971 46.6338 4.05596 45.5276 4.93971L45.4276 5.01846C44.3188 5.90097 42.6626 5.73846 41.7476 4.65596L41.6663 4.55846C40.75 3.47596 39.2525 3.47596 38.3363 4.55846L38.255 4.65596C37.34 5.73846 35.6825 5.90097 34.575 5.01846L34.4763 4.93971C33.3675 4.05596 31.8988 4.34846 31.215 5.58971L31.1513 5.70096C30.4663 6.94097 28.8737 7.42472 27.615 6.77472L27.4987 6.71597C26.24 6.06597 24.855 6.63972 24.4237 7.98972L24.3875 8.11222C23.955 9.46223 22.4862 10.246 21.125 9.85473L21.0012 9.81973C19.64 9.42848 18.3937 10.261 18.235 11.6685L18.22 11.796C18.0587 13.2047 16.7749 14.2597 15.3612 14.141L15.2362 14.1297C13.8224 14.0122 12.7637 15.0723 12.8824 16.4835L12.8937 16.6123C13.0099 18.0248 11.9549 19.311 10.5462 19.4698L10.4212 19.4848C9.01367 19.6448 8.17992 20.8898 8.57242 22.251L8.60617 22.3735C8.99867 23.736 8.21367 25.2048 6.86241 25.6348L6.74116 25.6735C5.39115 26.1048 4.81615 27.4873 5.46615 28.7473L5.5249 28.8623C6.17616 30.1223 5.69241 31.7136 4.4524 32.3998L4.34115 32.4623C3.0999 33.1498 2.80739 34.6173 3.69115 35.7248L3.7699 35.8248C4.65365 36.9336 4.4899 38.5886 3.4074 39.5036L3.31115 39.5861C2.22864 40.5011 2.22864 41.9986 3.31115 42.9136L3.4074 42.9961C4.4899 43.9111 4.65365 45.5674 3.7699 46.6749L3.69115 46.7749C2.80739 47.8836 3.09865 49.3511 4.34115 50.0374L4.4524 50.0999C5.69241 50.7861 6.17616 52.3786 5.5249 53.6386L5.46615 53.7524C4.8149 55.0124 5.3899 56.3949 6.74116 56.8262L6.86241 56.8649C8.21242 57.2949 8.99867 58.7649 8.60617 60.1249L8.57242 60.2487C8.18117 61.6099 9.01492 62.8549 10.4212 63.0149L10.5462 63.0299C11.9549 63.1887 13.0099 64.4749 12.8937 65.8874L12.8824 66.0162C12.7637 67.4275 13.8224 68.4875 15.2362 68.37L15.3612 68.3587C16.7749 68.24 18.0587 69.295 18.22 70.7037L18.235 70.8312C18.3937 72.24 19.64 73.0725 21.0012 72.68L21.125 72.6462C22.4875 72.2537 23.9562 73.0375 24.3875 74.3887L24.4237 74.5112C24.855 75.8612 26.24 76.4337 27.4987 75.785L27.615 75.7262C28.8737 75.0762 30.4663 75.56 31.1513 76.8L31.215 76.9112C31.9 78.1512 33.3688 78.445 34.4763 77.5612L34.575 77.4825C35.6838 76.6 37.34 76.7625 38.255 77.845L38.3363 77.9425C39.2525 79.025 40.75 79.025 41.6663 77.9425L41.7476 77.845C42.6626 76.7625 44.3201 76.6 45.4276 77.4825L45.5276 77.5612C46.6351 78.445 48.1038 78.1525 48.7876 76.9112L48.8513 76.8C49.5363 75.56 51.1288 75.0762 52.3876 75.7262L52.5038 75.785C53.7626 76.435 55.1476 75.8625 55.5789 74.5112L55.6151 74.3887C56.0476 73.0387 57.5164 72.2537 58.8776 72.6462L59.0001 72.68C60.3614 73.0725 61.6064 72.24 61.7664 70.8312L61.7826 70.7037C61.9439 69.295 63.2276 68.24 64.6414 68.3587L64.7664 68.37C66.1801 68.4875 67.2389 67.4275 67.1201 66.0162L67.1089 65.8874C66.9927 64.4749 68.0477 63.1887 69.4564 63.0299L69.5814 63.0149C70.9889 62.8549 71.8227 61.6099 71.4302 60.2487L71.3964 60.1249C71.0039 58.7637 71.7889 57.2937 73.1414 56.8649L73.2614 56.8262C74.6127 56.3949 75.1864 55.0124 74.5364 53.7524L74.4777 53.6386C73.8264 52.3786 74.3102 50.7861 75.5502 50.0999L75.6614 50.0374C76.9027 49.3499 77.1952 47.8824 76.3114 46.7749L76.2289 46.6749ZM64.4589 42.3586L64.3939 42.4136C63.6726 43.0236 63.5626 44.1274 64.1526 44.8661L64.2051 44.9324C64.7951 45.6724 64.6001 46.6511 63.7726 47.1086L63.6976 47.1499C62.8714 47.6074 62.5489 48.6699 62.9826 49.5099L63.0214 49.5861C63.4551 50.4261 63.0726 51.3474 62.1714 51.6349L62.0926 51.6611C61.1914 51.9474 60.6664 52.9261 60.9289 53.8336L60.9526 53.9161C61.2139 54.8237 60.6576 55.6537 59.7201 55.7599L59.6376 55.7699C58.6976 55.8762 57.9951 56.7337 58.0726 57.6749L58.0801 57.7587C58.1576 58.7012 57.4526 59.4062 56.5101 59.3287L56.4276 59.3212C55.4851 59.2437 54.6301 59.9462 54.5226 60.8862L54.5114 60.9687C54.4051 61.9087 53.5751 62.4624 52.6676 62.2012L52.5863 62.1762C51.6776 61.9149 50.6988 62.4387 50.4113 63.3387L50.3863 63.4199C50.1001 64.3199 49.1751 64.7024 48.3363 64.2699L48.2588 64.2299C47.4201 63.7974 46.3576 64.1199 45.9013 64.9462L45.8588 65.0212C45.4026 65.8474 44.4238 66.0424 43.6863 65.4537L43.6188 65.4024C42.8801 64.8124 41.775 64.9212 41.165 65.6424L41.11 65.7074C40.5 66.4299 39.5013 66.4299 38.8913 65.7074L38.8363 65.6424C38.2263 64.9212 37.1213 64.8124 36.3825 65.4024L36.3163 65.4537C35.5775 66.0437 34.5988 65.8474 34.1425 65.0212L34.1 64.9462C33.6438 64.1199 32.5813 63.7974 31.7425 64.2299L31.665 64.2699C30.8263 64.7037 29.9025 64.3199 29.615 63.4199L29.59 63.3387C29.3025 62.4387 28.3225 61.9149 27.415 62.1762L27.3337 62.2012C26.425 62.4624 25.595 61.9087 25.4887 60.9687L25.4787 60.8862C25.3712 59.9462 24.515 59.2437 23.5737 59.3212L23.4912 59.3287C22.5487 59.4062 21.8437 58.7012 21.9212 57.7587L21.9287 57.6749C22.0062 56.7337 21.3037 55.8762 20.3637 55.7699L20.2812 55.7599C19.3437 55.6537 18.7875 54.8237 19.0487 53.9161L19.0725 53.8336C19.335 52.9249 18.81 51.9461 17.91 51.6611L17.83 51.6349C16.9299 51.3486 16.5474 50.4261 16.9799 49.5861L17.0187 49.5099C17.4525 48.6699 17.13 47.6086 16.3037 47.1499L16.2287 47.1086C15.4012 46.6511 15.2074 45.6724 15.7962 44.9324L15.8487 44.8661C16.4387 44.1274 16.3287 43.0236 15.6074 42.4136L15.5424 42.3586C14.8212 41.7486 14.8212 40.7499 15.5424 40.1398L15.6074 40.0848C16.3287 39.4748 16.4387 38.3711 15.8487 37.6323L15.7962 37.5661C15.2062 36.8261 15.4012 35.8473 16.2287 35.3898L16.3037 35.3498C17.13 34.8911 17.4525 33.8286 17.0187 32.9898L16.9799 32.9123C16.5462 32.0723 16.9299 31.1511 17.83 30.8636L17.91 30.8373C18.81 30.5511 19.335 29.5711 19.0725 28.6636L19.0487 28.5823C18.7875 27.6748 19.3437 26.8448 20.2812 26.7385L20.3637 26.7285C21.3037 26.6223 22.0062 25.7648 21.9287 24.8235L21.9212 24.7398C21.8437 23.7973 22.5487 23.0923 23.4912 23.1698L23.5737 23.1773C24.5162 23.2548 25.3712 22.5523 25.4787 21.6123L25.4887 21.5298C25.595 20.5898 26.425 20.036 27.3337 20.2973L27.415 20.3223C28.3237 20.5823 29.3025 20.0598 29.59 19.1598L29.615 19.0785C29.9013 18.1785 30.8263 17.796 31.665 18.2298L31.7425 18.2685C32.5813 18.701 33.6438 18.3785 34.1 17.5523L34.1425 17.4773C34.5988 16.651 35.5775 16.456 36.3163 17.0448L36.3825 17.096C37.1213 17.686 38.2263 17.5773 38.8363 16.856L38.8913 16.791C39.5013 16.0685 40.5 16.0685 41.11 16.791L41.165 16.856C41.775 17.5773 42.8801 17.686 43.6188 17.096L43.6863 17.0448C44.4238 16.4548 45.4026 16.651 45.8588 17.4773L45.9013 17.5523C46.3576 18.3785 47.4201 18.701 48.2588 18.2685L48.3363 18.2298C49.1751 17.7948 50.0988 18.1785 50.3863 19.0785L50.4113 19.1598C50.6988 20.0598 51.6788 20.5823 52.5863 20.321L52.6676 20.2973C53.5751 20.036 54.4051 20.5898 54.5114 21.5298L54.5226 21.6123C54.6301 22.5523 55.4864 23.2548 56.4276 23.1773L56.5101 23.1698C57.4526 23.0923 58.1576 23.7973 58.0801 24.7398L58.0726 24.8235C57.9951 25.7648 58.6976 26.6223 59.6376 26.7285L59.7201 26.7385C60.6576 26.8448 61.2139 27.6748 60.9526 28.5823L60.9289 28.6636C60.6664 29.5723 61.1914 30.5511 62.0926 30.8373L62.1714 30.8636C63.0726 31.1498 63.4539 32.0723 63.0214 32.9123L62.9826 32.9898C62.5489 33.8286 62.8714 34.8911 63.6976 35.3498L63.7726 35.3898C64.6001 35.8473 64.7939 36.8261 64.2051 37.5661L64.1526 37.6323C63.5626 38.3711 63.6726 39.4748 64.3939 40.0848L64.4589 40.1398C65.1814 40.7499 65.1814 41.7474 64.4589 42.3586Z" fill="#84BD5A"/>
<path d="M40 11.2498C23.4324 11.2498 9.99988 24.6811 9.99988 41.2499C9.99988 57.8187 23.4324 71.25 40 71.25C56.5676 71.25 70.0001 57.8187 70.0001 41.2499C70.0001 24.6811 56.5676 11.2498 40 11.2498ZM63.0226 32.9123L62.9838 32.9898C62.5501 33.8286 62.8726 34.8911 63.6988 35.3499L63.7738 35.3899C64.6013 35.8474 64.7951 36.8261 64.2063 37.5661L64.1538 37.6324C63.5638 38.3711 63.6738 39.4749 64.3951 40.0849L64.4601 40.1399C65.1813 40.7499 65.1813 41.7486 64.4601 42.3586L64.3951 42.4136C63.6738 43.0236 63.5638 44.1274 64.1538 44.8661L64.2063 44.9324C64.7963 45.6724 64.6013 46.6511 63.7738 47.1086L63.6988 47.1499C62.8726 47.6074 62.5501 48.6699 62.9838 49.5099L63.0226 49.5862C63.4563 50.4262 63.0738 51.3474 62.1726 51.6349L62.0938 51.6612C61.1926 51.9474 60.6676 52.9262 60.9301 53.8337L60.9538 53.9162C61.2151 54.8237 60.6588 55.6537 59.7213 55.7599L59.6388 55.7699C58.6988 55.8762 57.9963 56.7337 58.0738 57.6749L58.0813 57.7587C58.1588 58.7012 57.4538 59.4062 56.5113 59.3287L56.4288 59.3212C55.4863 59.2437 54.6313 59.9462 54.5238 60.8862L54.5126 60.9687C54.4063 61.9087 53.5763 62.4625 52.6688 62.2012L52.5875 62.1762C51.6788 61.915 50.7 62.4387 50.4125 63.3387L50.3875 63.42C50.1013 64.32 49.1763 64.7025 48.3375 64.27L48.26 64.23C47.4213 63.7975 46.3588 64.12 45.9025 64.9462L45.86 65.0212C45.4038 65.8475 44.425 66.0425 43.6875 65.4537L43.62 65.4025C42.8813 64.8125 41.7763 64.9212 41.1663 65.6425L41.1112 65.7075C40.5012 66.43 39.5025 66.43 38.8925 65.7075L38.8375 65.6425C38.2275 64.9212 37.1225 64.8125 36.3837 65.4025L36.3175 65.4537C35.5787 66.0437 34.6 65.8475 34.1437 65.0212L34.1012 64.9462C33.645 64.12 32.5825 63.7975 31.7437 64.23L31.6662 64.27C30.8275 64.7037 29.9037 64.32 29.6162 63.42L29.5912 63.3387C29.3037 62.4387 28.3237 61.915 27.4162 62.1762L27.3349 62.2012C26.4262 62.4625 25.5962 61.9087 25.4899 60.9687L25.4799 60.8862C25.3724 59.9462 24.5162 59.2437 23.5749 59.3212L23.4924 59.3287C22.5499 59.4062 21.8449 58.7012 21.9224 57.7587L21.9299 57.6749C22.0074 56.7337 21.3049 55.8762 20.3649 55.7699L20.2824 55.7599C19.3449 55.6537 18.7887 54.8237 19.0499 53.9162L19.0737 53.8337C19.3362 52.9249 18.8112 51.9462 17.9112 51.6612L17.8312 51.6349C16.9312 51.3487 16.5487 50.4262 16.9812 49.5862L17.0199 49.5099C17.4537 48.6699 17.1312 47.6086 16.3049 47.1499L16.2299 47.1086C15.4024 46.6511 15.2086 45.6724 15.7974 44.9324L15.8499 44.8661C16.4399 44.1274 16.3299 43.0236 15.6086 42.4136L15.5436 42.3586C14.8224 41.7486 14.8224 40.7499 15.5436 40.1399L15.6086 40.0849C16.3299 39.4749 16.4399 38.3711 15.8499 37.6324L15.7974 37.5661C15.2074 36.8261 15.4024 35.8474 16.2299 35.3899L16.3049 35.3499C17.1312 34.8911 17.4537 33.8286 17.0199 32.9898L16.9812 32.9123C16.5474 32.0723 16.9312 31.1511 17.8312 30.8636L17.9112 30.8373C18.8112 30.5511 19.3362 29.5711 19.0737 28.6636L19.0499 28.5823C18.7887 27.6748 19.3449 26.8448 20.2824 26.7386L20.3649 26.7286C21.3049 26.6223 22.0074 25.7648 21.9299 24.8236L21.9224 24.7398C21.8449 23.7973 22.5499 23.0923 23.4924 23.1698L23.5749 23.1773C24.5174 23.2548 25.3724 22.5523 25.4799 21.6123L25.4899 21.5298C25.5962 20.5898 26.4262 20.036 27.3349 20.2973L27.4162 20.3223C28.3249 20.5823 29.3037 20.0598 29.5912 19.1598L29.6162 19.0785C29.9025 18.1785 30.8275 17.796 31.6662 18.2298L31.7437 18.2685C32.5825 18.701 33.645 18.3785 34.1012 17.5523L34.1437 17.4773C34.6 16.651 35.5787 16.456 36.3175 17.0448L36.3837 17.096C37.1225 17.686 38.2275 17.5773 38.8375 16.856L38.8925 16.791C39.5025 16.0685 40.5012 16.0685 41.1112 16.791L41.1663 16.856C41.7763 17.5773 42.8813 17.686 43.62 17.096L43.6875 17.0448C44.425 16.4548 45.4038 16.651 45.86 17.4773L45.9025 17.5523C46.3588 18.3785 47.4213 18.701 48.26 18.2685L48.3375 18.2298C49.1763 17.7948 50.1 18.1785 50.3875 19.0785L50.4125 19.1598C50.7 20.0598 51.68 20.5823 52.5875 20.321L52.6688 20.2973C53.5763 20.036 54.4063 20.5898 54.5126 21.5298L54.5238 21.6123C54.6313 22.5523 55.4876 23.2548 56.4288 23.1773L56.5113 23.1698C57.4538 23.0923 58.1588 23.7973 58.0813 24.7398L58.0738 24.8236C57.9963 25.7648 58.6988 26.6223 59.6388 26.7286L59.7213 26.7386C60.6588 26.8448 61.2151 27.6748 60.9538 28.5823L60.9301 28.6636C60.6676 29.5723 61.1926 30.5511 62.0938 30.8373L62.1726 30.8636C63.0738 31.1511 63.4563 32.0723 63.0226 32.9123Z" fill="#73AE44"/>
<path d="M43.75 78.75C43.75 79.4375 43.1875 80 42.5 80H37.5C36.8125 80 36.25 79.4375 36.25 78.75V63.7499C36.25 63.0624 36.8125 62.4999 37.5 62.4999H42.5C43.1875 62.4999 43.75 63.0624 43.75 63.7499V78.75Z" fill="#E4513F"/>
<path d="M62.5001 44.9999C61.8126 44.9999 61.2501 44.4374 61.2501 43.7499V38.7499C61.2501 38.0624 61.8126 37.4999 62.5001 37.4999H77.5002C78.1877 37.4999 78.7502 38.0624 78.7502 38.7499V43.7499C78.7502 44.4374 78.1877 44.9999 77.5002 44.9999H62.5001Z" fill="#E4513F"/>
<path d="M2.49988 44.9999C1.81238 44.9999 1.24988 44.4374 1.24988 43.7499V38.7499C1.24988 38.0624 1.81238 37.4999 2.49988 37.4999H17.4999C18.1874 37.4999 18.7499 38.0624 18.7499 38.7499V43.7499C18.7499 44.4374 18.1874 44.9999 17.4999 44.9999H2.49988Z" fill="#E4513F"/>
<path d="M14.7125 69.6162C14.2012 70.1262 13.3637 70.1262 12.8537 69.6162L9.13368 65.8974C8.62243 65.3862 8.62243 64.5499 9.13368 64.0387L20.2887 52.8824C20.8 52.3724 21.6375 52.3724 22.1475 52.8824L25.8675 56.6024C26.3787 57.1136 26.3787 57.9499 25.8675 58.4611L14.7125 69.6162Z" fill="#E4513F"/>
<path d="M65.2876 69.6162C65.7989 70.1262 66.6364 70.1262 67.1464 69.6162L70.8664 65.8974C71.3777 65.3862 71.3777 64.5499 70.8664 64.0387L59.7114 52.8824C59.2001 52.3724 58.3626 52.3724 57.8526 52.8824L54.1326 56.6024C53.6213 57.1136 53.6213 57.9499 54.1326 58.4611L65.2876 69.6162Z" fill="#E4513F"/>
<path d="M14.7124 11.6335C14.2024 11.1235 13.3649 11.1235 12.8549 11.6335L9.1336 15.3522C8.6236 15.8635 8.6236 16.6997 9.1336 17.211L20.2886 28.3673C20.8011 28.8773 21.6386 28.8773 22.1487 28.3673L25.8674 24.6473C26.3799 24.136 26.3799 23.2998 25.8674 22.7885L14.7124 11.6335Z" fill="#E4513F"/>
<path d="M65.2877 11.6335C65.8002 11.1235 66.6377 11.1235 67.1477 11.6335L70.8664 15.3522C71.3789 15.8635 71.3789 16.6997 70.8664 17.211L59.7114 28.3673C59.2014 28.8773 58.3639 28.8773 57.8539 28.3673L54.1326 24.6473C53.6226 24.136 53.6226 23.2998 54.1326 22.7885L65.2877 11.6335Z" fill="#E4513F"/>
<path d="M65.0001 20.2748V12.4998V11.921L55.645 21.2761L60.35 23.4173C62.9075 24.4386 65.0001 23.0248 65.0001 20.2748Z" fill="#BC3E34"/>
<path d="M14.9999 20.2748V12.4998V11.921L24.3549 21.2761L19.6499 23.4173C17.0924 24.4386 14.9999 23.0248 14.9999 20.2748Z" fill="#BC3E34"/>
<path d="M60.3488 0.332167L44.6025 7.49969C42.2113 8.4547 40.2513 9.5872 40 11.2497C40.2513 12.9122 42.2113 14.0447 44.6025 14.9997L60.3501 22.1672C62.9076 23.1885 65.0001 21.7747 65.0001 19.0247V11.2497V3.47468C65.0001 0.724669 62.9076 -0.689087 60.3488 0.332167Z" fill="#F15642"/>
<path d="M19.6511 0.332167L35.3975 7.49969C37.7887 8.4547 39.7475 9.5872 40 11.2497C39.7487 12.9122 37.7887 14.0447 35.3975 14.9997L19.6499 22.1673C17.0924 23.1885 14.9999 21.7748 14.9999 19.0247V11.2497V3.47468C14.9999 0.724669 17.0924 -0.689087 19.6511 0.332167Z" fill="#F15642"/>
<path d="M19.6511 0.332167L35.3975 7.49969C37.7887 8.4547 39.7475 9.5872 40 11.2497H14.9999V3.47468C14.9999 0.724669 17.0924 -0.689087 19.6511 0.332167Z" fill="#E4513F"/>
<path d="M60.3488 0.332167L44.6025 7.49969C42.2113 8.4547 40.2513 9.5872 40 11.2497H65.0001V3.47468C65.0001 0.724669 62.9076 -0.689087 60.3488 0.332167Z" fill="#E4513F"/>
<path d="M35.3975 7.49977L31.63 5.78601C30.6025 7.35602 30 9.23102 30 11.2498C30 13.2685 30.6025 15.1435 31.6313 16.7136L35.3975 14.9998C37.7888 14.0448 39.7475 12.9123 40 11.2498C39.7488 9.58728 37.7888 8.45477 35.3975 7.49977Z" fill="#BC3E34"/>
<path d="M40 11.2498C40.2513 12.9123 42.2113 14.0448 44.6025 14.9998L48.37 16.7136C49.3975 15.1435 50 13.2685 50 11.2498C50 9.23102 49.3975 7.35602 48.3688 5.78601L44.6025 7.49977C42.2113 8.45477 40.2513 9.58728 40 11.2498Z" fill="#BC3E34"/>
<path d="M40 19.9998C44.8325 19.9998 48.7501 16.0823 48.7501 11.2498C48.7501 6.41728 44.8325 2.49976 40 2.49976C35.1675 2.49976 31.25 6.41728 31.25 11.2498C31.25 16.0823 35.1675 19.9998 40 19.9998Z" fill="#F15642"/>
<path d="M44.8076 3.94226C45.7163 5.32227 46.2501 6.97227 46.2501 8.74978C46.2501 13.5835 42.3313 17.4998 37.5 17.4998C35.7238 17.4998 34.0738 16.9673 32.6925 16.0573C34.2575 18.4311 36.945 19.9998 40 19.9998C44.8313 19.9998 48.7501 16.0836 48.7501 11.2498C48.7501 8.19353 47.1813 5.50727 44.8076 3.94226Z" fill="#E4513F"/>
<path d="M47.5 68.7499C48.1904 68.7499 48.75 68.1903 48.75 67.4999C48.75 66.8096 48.1904 66.2499 47.5 66.2499C46.8096 66.2499 46.25 66.8096 46.25 67.4999C46.25 68.1903 46.8096 68.7499 47.5 68.7499Z" fill="#84BD5A"/>
<path d="M55.0001 71.2499C55.6905 71.2499 56.2501 70.6903 56.2501 69.9999C56.2501 69.3096 55.6905 68.7499 55.0001 68.7499C54.3098 68.7499 53.7501 69.3096 53.7501 69.9999C53.7501 70.6903 54.3098 71.2499 55.0001 71.2499Z" fill="#90C660"/>
<path d="M47.5 74.9999C48.1904 74.9999 48.75 74.4403 48.75 73.7499C48.75 73.0596 48.1904 72.4999 47.5 72.4999C46.8096 72.4999 46.25 73.0596 46.25 73.7499C46.25 74.4403 46.8096 74.9999 47.5 74.9999Z" fill="#90C660"/>
<path d="M70.0001 54.9999C70.6905 54.9999 71.2501 54.4402 71.2501 53.7499C71.2501 53.0595 70.6905 52.4999 70.0001 52.4999C69.3098 52.4999 68.7501 53.0595 68.7501 53.7499C68.7501 54.4402 69.3098 54.9999 70.0001 54.9999Z" fill="#90C660"/>
<path d="M72.5001 34.9998C73.1905 34.9998 73.7501 34.4401 73.7501 33.7498C73.7501 33.0594 73.1905 32.4998 72.5001 32.4998C71.8098 32.4998 71.2501 33.0594 71.2501 33.7498C71.2501 34.4401 71.8098 34.9998 72.5001 34.9998Z" fill="#90C660"/>
<path d="M68.7501 27.4998C69.4405 27.4998 70.0001 26.9401 70.0001 26.2498C70.0001 25.5594 69.4405 24.9998 68.7501 24.9998C68.0598 24.9998 67.5001 25.5594 67.5001 26.2498C67.5001 26.9401 68.0598 27.4998 68.7501 27.4998Z" fill="#90C660"/>
<path d="M12.4999 26.2498C13.1902 26.2498 13.7499 25.6901 13.7499 24.9998C13.7499 24.3094 13.1902 23.7498 12.4999 23.7498C11.8095 23.7498 11.2499 24.3094 11.2499 24.9998C11.2499 25.6901 11.8095 26.2498 12.4999 26.2498Z" fill="#90C660"/>
<path d="M7.49988 33.7498C8.19024 33.7498 8.74989 33.1901 8.74989 32.4998C8.74989 31.8094 8.19024 31.2498 7.49988 31.2498C6.80952 31.2498 6.24988 31.8094 6.24988 32.4998C6.24988 33.1901 6.80952 33.7498 7.49988 33.7498Z" fill="#90C660"/>
<path d="M7.49988 49.9999C8.19024 49.9999 8.74989 49.4402 8.74989 48.7499C8.74989 48.0595 8.19024 47.4999 7.49988 47.4999C6.80952 47.4999 6.24988 48.0595 6.24988 48.7499C6.24988 49.4402 6.80952 49.9999 7.49988 49.9999Z" fill="#90C660"/>
<path d="M9.99988 56.2499C10.6902 56.2499 11.2499 55.6902 11.2499 54.9999C11.2499 54.3095 10.6902 53.7499 9.99988 53.7499C9.30952 53.7499 8.74988 54.3095 8.74988 54.9999C8.74988 55.6902 9.30952 56.2499 9.99988 56.2499Z" fill="#90C660"/>
<path d="M21.2499 69.9999C21.9402 69.9999 22.4999 69.4403 22.4999 68.7499C22.4999 68.0596 21.9402 67.4999 21.2499 67.4999C20.5595 67.4999 19.9999 68.0596 19.9999 68.7499C19.9999 69.4403 20.5595 69.9999 21.2499 69.9999Z" fill="#90C660"/>
<path d="M27.5 72.4999C28.1904 72.4999 28.75 71.9403 28.75 71.2499C28.75 70.5596 28.1904 69.9999 27.5 69.9999C26.8096 69.9999 26.25 70.5596 26.25 71.2499C26.25 71.9403 26.8096 72.4999 27.5 72.4999Z" fill="#90C660"/>
<path d="M30 67.4999C30.6904 67.4999 31.25 66.9402 31.25 66.2499C31.25 65.5595 30.6904 64.9999 30 64.9999C29.3096 64.9999 28.75 65.5595 28.75 66.2499C28.75 66.9402 29.3096 67.4999 30 67.4999Z" fill="#84BD5A"/>
<path d="M13.7499 52.4999C14.4402 52.4999 14.9999 51.9402 14.9999 51.2499C14.9999 50.5595 14.4402 49.9999 13.7499 49.9999C13.0595 49.9999 12.4999 50.5595 12.4999 51.2499C12.4999 51.9402 13.0595 52.4999 13.7499 52.4999Z" fill="#84BD5A"/>
<path d="M12.4999 36.2498C13.1902 36.2498 13.7499 35.6901 13.7499 34.9998C13.7499 34.3094 13.1902 33.7498 12.4999 33.7498C11.8095 33.7498 11.2499 34.3094 11.2499 34.9998C11.2499 35.6901 11.8095 36.2498 12.4999 36.2498Z" fill="#84BD5A"/>
<path d="M16.2499 29.9998C16.9402 29.9998 17.4999 29.4401 17.4999 28.7498C17.4999 28.0594 16.9402 27.4998 16.2499 27.4998C15.5595 27.4998 14.9999 28.0594 14.9999 28.7498C14.9999 29.4401 15.5595 29.9998 16.2499 29.9998Z" fill="#84BD5A"/>
<path d="M65.0001 28.7498C65.6905 28.7498 66.2501 28.1901 66.2501 27.4998C66.2501 26.8094 65.6905 26.2498 65.0001 26.2498C64.3098 26.2498 63.7501 26.8094 63.7501 27.4998C63.7501 28.1901 64.3098 28.7498 65.0001 28.7498Z" fill="#84BD5A"/>
<path d="M66.2501 34.9998C66.9405 34.9998 67.5001 34.4401 67.5001 33.7498C67.5001 33.0594 66.9405 32.4998 66.2501 32.4998C65.5598 32.4998 65.0001 33.0594 65.0001 33.7498C65.0001 34.4401 65.5598 34.9998 66.2501 34.9998Z" fill="#84BD5A"/>
<path d="M66.2501 51.2498C66.9405 51.2498 67.5001 50.6902 67.5001 49.9998C67.5001 49.3095 66.9405 48.7498 66.2501 48.7498C65.5598 48.7498 65.0001 49.3095 65.0001 49.9998C65.0001 50.6902 65.5598 51.2498 66.2501 51.2498Z" fill="#84BD5A"/>
</svg>
