<svg width="17" height="26" viewBox="0 0 17 26" fill="none" xmlns="http://www.w3.org/2000/svg">
    <path
        d="M16.2778 11.5555L14.3333 13.5H2.66667L0.722229 11.5555L2.66667 7.66663H14.3333L16.2778 11.5555Z"
        fill="#ECF0F1" />
    <path d="M11.4166 9.08008H5.58331V9.6693H11.4166V9.08008Z" fill="#345065" />
    <path d="M4.01031 5.81599L7.86762 9.55345L13.2672 3.97855L9.40986 0.241089L4.01031 5.81599Z"
        fill="#82D9C8" />
    <path
        d="M1.90068 25.1667H15.0993C15.7502 25.1667 16.2778 24.6391 16.2778 23.9882V11.5555H0.722229V23.9882C0.722229 24.6391 1.24982 25.1667 1.90068 25.1667Z"
        fill="#D0D5D9" />
    <g clip-path="url(#clip0_0_1)">
        <path
            d="M3.20001 21L3.70178 20.579L5.80857 21.84L4.91358 19.5621L5.41534 19.1411L6.44006 22.0286L5.87203 22.5053L3.20001 21Z"
            fill="#1E1E1E" />
        <path
            d="M12.4579 15.3279C12.3482 15.42 12.2492 15.4857 12.1608 15.5251C12.0724 15.5635 11.9927 15.581 11.9215 15.5776C11.8509 15.5737 11.7865 15.5536 11.7285 15.5172C11.6704 15.4808 11.6168 15.4333 11.5677 15.3748L11.2344 14.9777C11.184 14.9175 11.1451 14.8554 11.1179 14.7913C11.0908 14.7262 11.081 14.658 11.0886 14.5867C11.0967 14.5149 11.1273 14.4388 11.1805 14.3585C11.2337 14.2772 11.3155 14.1903 11.4258 14.0978C11.5327 14.0081 11.6276 13.9453 11.7106 13.9096C11.7941 13.8734 11.8685 13.8586 11.9338 13.8651C11.9996 13.8712 12.0592 13.893 12.1126 13.9306C12.1665 13.9677 12.2173 14.0147 12.2651 14.0717L12.2807 14.0902L12.0516 14.3126L12.0117 14.2651C11.9671 14.2119 11.9239 14.1786 11.8822 14.165C11.8401 14.151 11.7953 14.1547 11.7478 14.1762C11.6999 14.1972 11.6451 14.2336 11.5833 14.2855C11.522 14.3369 11.4741 14.3872 11.4394 14.4364C11.4049 14.4846 11.3883 14.5338 11.3895 14.584C11.3904 14.6336 11.4138 14.6858 11.4597 14.7406L11.8369 15.1901C11.8824 15.2443 11.9291 15.2761 11.9768 15.2855C12.0246 15.2939 12.075 15.285 12.128 15.2588C12.1812 15.2316 12.2386 15.1921 12.3005 15.1402C12.3634 15.0874 12.4115 15.0384 12.4447 14.9931C12.4774 14.9473 12.4922 14.9015 12.4889 14.8558C12.4857 14.809 12.4614 14.7585 12.4159 14.7043L12.3429 14.6173L12.0939 14.8262L11.9621 14.6691L12.4349 14.2723L12.9466 14.8822L12.8155 14.9922L12.6613 14.8882C12.6661 14.9007 12.6704 14.92 12.6742 14.946C12.678 14.9721 12.6757 15.0043 12.667 15.0426C12.6579 15.0805 12.6374 15.1233 12.6055 15.1712C12.574 15.2196 12.5248 15.2718 12.4579 15.3279Z"
            fill="#1E1E1E" />
        <path
            d="M9.38605 15.8436L9.57234 15.6873L10.9441 15.975L10.9276 16.0011L10.2131 15.1497L10.4336 14.9646L11.4314 16.1536L11.2451 16.3099L9.88667 16.0331L9.90314 16.0069L10.6068 16.8455L10.3838 17.0326L9.38605 15.8436Z"
            fill="#1E1E1E" />
        <path
            d="M9.07683 17.8245L9.30156 17.6359L8.6033 16.8038L8.37857 16.9924L8.22919 16.8143L8.92424 16.2311L9.07363 16.4091L8.85058 16.5963L9.54884 17.4285L9.77189 17.2413L9.92195 17.4201L9.22689 18.0034L9.07683 17.8245Z"
            fill="#1E1E1E" />
        <path
            d="M8.30145 18.7799L7.4565 17.773L7.11315 18.0611L6.96039 17.879L7.89437 17.0953L8.04714 17.2774L7.70378 17.5655L8.54873 18.5724L8.30145 18.7799Z"
            fill="#1E1E1E" />
        <path
            d="M7.11119 19.8144C7.00036 19.9074 6.90006 19.9728 6.8103 20.0106C6.72053 20.0484 6.63966 20.0645 6.56767 20.059C6.49568 20.0536 6.42998 20.0318 6.37057 19.9938C6.31171 19.9553 6.25773 19.9068 6.20861 19.8483L5.89632 19.4761C5.84585 19.416 5.80655 19.3533 5.77843 19.2881C5.74987 19.2224 5.73868 19.1531 5.74487 19.0802C5.75107 19.0073 5.78057 18.9299 5.83339 18.848C5.88575 18.7657 5.96762 18.6777 6.07901 18.5843C6.18538 18.495 6.28274 18.4335 6.37107 18.3996C6.45996 18.3653 6.54096 18.3527 6.61409 18.3618C6.68732 18.3699 6.75399 18.3945 6.81409 18.4356C6.87475 18.4762 6.93031 18.5266 6.98079 18.5867L7.27212 18.9339C7.32124 18.9925 7.36008 19.0546 7.38865 19.1203C7.41677 19.1855 7.42846 19.2548 7.42372 19.3284C7.41954 19.4014 7.39311 19.4785 7.34444 19.5596C7.29531 19.6402 7.21756 19.7251 7.11119 19.8144ZM6.95369 19.6267C7.01607 19.5743 7.06268 19.5247 7.09353 19.4778C7.12438 19.4308 7.13726 19.3834 7.13218 19.3355C7.1271 19.2876 7.10181 19.2365 7.05629 19.1823L6.69466 18.7513C6.65004 18.6982 6.60437 18.6646 6.55762 18.6508C6.51088 18.6369 6.46099 18.6408 6.40795 18.6624C6.35547 18.6836 6.29833 18.7201 6.23651 18.772C6.17524 18.8234 6.12774 18.8742 6.094 18.9245C6.06026 18.9748 6.04449 19.0255 6.04667 19.0768C6.04886 19.128 6.07271 19.1808 6.11823 19.235L6.47986 19.666C6.52538 19.7202 6.57267 19.7528 6.62175 19.7638C6.67139 19.7743 6.72366 19.7671 6.77858 19.742C6.8335 19.717 6.89187 19.6786 6.95369 19.6267Z"
            fill="#1E1E1E" />
        <path d="M6.37137 20.6945L6.73932 21.7776L13.8414 15.8182L13.156 15.0015L6.37137 20.6945Z"
            fill="#1E1E1E" />
        <path
            d="M13.2468 16.1421L13.1904 16.0749C13.2142 16.0549 13.2301 16.0359 13.2383 16.0178C13.2467 15.9995 13.2473 15.9803 13.2403 15.9601C13.2335 15.9398 13.2191 15.9167 13.1973 15.8906L13.0335 15.6954C13.0115 15.6692 12.9913 15.6512 12.9728 15.6413C12.9543 15.6311 12.9356 15.6285 12.9165 15.6336C12.8974 15.6387 12.8759 15.6514 12.8519 15.6715L12.7955 15.6042C12.8377 15.5688 12.8776 15.5462 12.9154 15.5364C12.9533 15.5264 12.99 15.5292 13.0254 15.5449C13.0609 15.5602 13.0959 15.5884 13.1304 15.6295L13.2775 15.8048C13.3124 15.8463 13.3345 15.8862 13.3439 15.9244C13.3536 15.9624 13.3502 15.9994 13.3339 16.0352C13.3178 16.0713 13.2888 16.1069 13.2468 16.1421Z"
            fill="white" />
        <path
            d="M12.1809 16.1727L12.2526 16.1126L12.7801 16.2232L12.7738 16.2333L12.499 15.9058L12.5838 15.8346L12.9676 16.292L12.8959 16.3521L12.3735 16.2456L12.3798 16.2355L12.6504 16.5581L12.5646 16.63L12.1809 16.1727Z"
            fill="white" />
        <path
            d="M12.0093 16.9787L12.0957 16.9062L11.8272 16.5862L11.7407 16.6587L11.6833 16.5902L11.9506 16.3659L12.0081 16.4344L11.9223 16.5064L12.1908 16.8264L12.2766 16.7544L12.3344 16.8232L12.067 17.0475L12.0093 16.9787Z"
            fill="white" />
        <path
            d="M11.1594 17.0299L11.4701 16.7692L11.5283 16.8386L11.3127 17.0195L11.4146 17.141L11.6058 16.9805L11.6614 17.0468L11.4703 17.2073L11.58 17.338L11.7991 17.1541L11.8573 17.2235L11.5431 17.4872L11.1594 17.0299Z"
            fill="white" />
        <path
            d="M10.5191 17.5671L10.6149 17.4868L10.7781 17.6814L10.9863 17.5067L10.8231 17.3121L10.9188 17.2317L11.3025 17.6891L11.2068 17.7694L11.0469 17.5789L10.8387 17.7536L10.9986 17.9441L10.9028 18.0245L10.5191 17.5671Z"
            fill="white" />
        <path
            d="M10.484 18.3759L10.159 17.9886L10.027 18.0994L9.9682 18.0294L10.3274 17.728L10.3862 17.798L10.2541 17.9088L10.5791 18.2961L10.484 18.3759Z"
            fill="white" />
        <path
            d="M9.77918 18.9673L9.5516 18.379L9.6782 18.2728L10.22 18.5974L10.1188 18.6823L9.65925 18.3826L9.6676 18.3756L9.87879 18.8837L9.77918 18.9673ZM9.79641 18.8045L9.75557 18.7173L9.97856 18.5302L10.0567 18.5861L9.79641 18.8045Z"
            fill="white" />
        <path
            d="M8.89783 18.9275L9.08387 18.7714C9.13592 18.7277 9.18431 18.7066 9.22904 18.7082C9.27359 18.7095 9.31754 18.736 9.36087 18.7876C9.3905 18.823 9.40982 18.8562 9.41882 18.8874C9.42764 18.9183 9.42465 18.9494 9.40985 18.9804C9.39526 19.0113 9.36729 19.0441 9.32595 19.0788L9.24466 19.147L9.37699 19.3047L9.28156 19.3848L8.89783 18.9275ZM9.28464 18.9989C9.3007 18.9854 9.3105 18.9721 9.31405 18.9589C9.31759 18.9457 9.31585 18.9317 9.30884 18.9168C9.30183 18.9019 9.29069 18.8854 9.27544 18.8672C9.26192 18.8511 9.24818 18.838 9.23423 18.8279C9.22048 18.8176 9.20642 18.8122 9.19204 18.8116C9.17749 18.8107 9.16271 18.8166 9.14772 18.8292L9.04811 18.9128L9.18824 19.0798L9.28464 18.9989Z"
            fill="white" />
        <path
            d="M9.09096 19.6292C9.04898 19.6644 9.00881 19.687 8.97048 19.697C8.93253 19.7071 8.89582 19.7044 8.86035 19.6891C8.82493 19.6734 8.79006 19.6452 8.75574 19.6043L8.60859 19.4289C8.57774 19.3921 8.55644 19.3554 8.5447 19.3188C8.533 19.2818 8.53422 19.2446 8.54834 19.207C8.56229 19.1693 8.59272 19.1307 8.63963 19.0913L8.69605 19.1586C8.67398 19.1771 8.6585 19.1952 8.64961 19.2129C8.64054 19.2303 8.63901 19.2494 8.64502 19.27C8.65103 19.2907 8.66582 19.315 8.6894 19.3431L8.85318 19.5383C8.87658 19.5662 8.89773 19.5849 8.91664 19.5944C8.93576 19.6037 8.95471 19.6054 8.97348 19.5995C8.99209 19.5934 9.01253 19.581 9.0348 19.5623L9.09096 19.6292Z"
            fill="white" />
        <path
            d="M8.49557 20.0581C8.46323 20.0853 8.42755 20.1089 8.38854 20.1289C8.34952 20.149 8.31275 20.1626 8.27823 20.1698L8.25459 20.075C8.2806 20.069 8.30944 20.0593 8.34113 20.0457C8.37286 20.0317 8.4034 20.0125 8.43275 19.9878C8.45224 19.9715 8.46466 19.9565 8.47001 19.9428C8.47557 19.929 8.47608 19.9159 8.47153 19.9035C8.46703 19.8908 8.45957 19.8782 8.44918 19.8658C8.44207 19.8573 8.43407 19.8509 8.42518 19.8463C8.41611 19.8416 8.40436 19.8402 8.3899 19.8422C8.37549 19.8437 8.3565 19.8498 8.33293 19.8604L8.23272 19.9054C8.20078 19.9195 8.17243 19.9264 8.14768 19.9261C8.12297 19.9253 8.1007 19.919 8.08088 19.9072C8.06127 19.8951 8.04332 19.8794 8.02703 19.8599C8.00311 19.8314 7.99053 19.8019 7.98928 19.7712C7.98825 19.7404 7.99634 19.7101 8.01357 19.6801C8.03083 19.6498 8.05499 19.6216 8.08605 19.5955C8.11732 19.5693 8.14856 19.548 8.17976 19.5317C8.21096 19.5154 8.2426 19.5041 8.27467 19.498L8.30202 19.5854C8.2777 19.5921 8.25289 19.6014 8.22761 19.6135C8.20232 19.6256 8.17811 19.6413 8.15498 19.6607C8.13077 19.681 8.11453 19.7008 8.10624 19.7201C8.09778 19.7392 8.10179 19.7585 8.11825 19.7781C8.13143 19.7938 8.14574 19.8024 8.1612 19.8039C8.17688 19.8051 8.19966 19.7992 8.22954 19.7861L8.32969 19.7417C8.3694 19.7242 8.40579 19.7188 8.43884 19.7256C8.47189 19.7324 8.50349 19.7537 8.53365 19.7896C8.55532 19.8155 8.56963 19.8434 8.5766 19.8735C8.5834 19.9033 8.58064 19.934 8.56833 19.9654C8.55603 19.9968 8.53177 20.0278 8.49557 20.0581Z"
            fill="white" />
        <path
            d="M7.92793 20.5344C7.88573 20.5698 7.84817 20.5946 7.81523 20.6089C7.78234 20.6227 7.75295 20.6284 7.72707 20.6258C7.70119 20.6232 7.67761 20.6145 7.65636 20.5996C7.6351 20.5847 7.61502 20.566 7.59613 20.5435L7.46796 20.3907C7.44854 20.3676 7.43307 20.3442 7.42153 20.3204C7.41003 20.2963 7.40499 20.2711 7.40639 20.2449C7.40801 20.2186 7.41861 20.1903 7.4382 20.1602C7.45761 20.1298 7.48853 20.0968 7.53094 20.0612C7.57142 20.0273 7.60736 20.004 7.63876 19.9914C7.67019 19.9784 7.6984 19.9737 7.72338 19.9774C7.74837 19.981 7.77134 19.9908 7.79231 20.0067C7.8131 20.0223 7.8332 20.0417 7.85261 20.0648L7.85729 20.0704L7.77263 20.1594L7.75313 20.1361C7.7351 20.1147 7.71845 20.1005 7.70318 20.0936C7.68773 20.0865 7.67135 20.0863 7.65404 20.0931C7.63656 20.0997 7.61572 20.1131 7.59151 20.1334C7.56795 20.1532 7.55036 20.1718 7.53875 20.1893C7.52719 20.2064 7.52251 20.2239 7.52471 20.2417C7.52675 20.2594 7.53661 20.2788 7.55429 20.2998L7.69936 20.4727C7.71686 20.4936 7.73404 20.5064 7.7509 20.5113C7.76758 20.516 7.78526 20.514 7.80394 20.5053C7.82265 20.4963 7.8439 20.4818 7.86768 20.4619C7.89188 20.4416 7.90908 20.4238 7.91929 20.4086C7.92931 20.3931 7.93233 20.3775 7.92832 20.3619C7.92436 20.3459 7.91328 20.327 7.89508 20.3053L7.88286 20.2908L7.97636 20.2123L7.98338 20.2207C8.00227 20.2432 8.01755 20.2657 8.02921 20.2883C8.04087 20.3109 8.04636 20.3347 8.04569 20.3595C8.04483 20.3842 8.03528 20.4108 8.01701 20.4395C7.99875 20.4682 7.96906 20.4998 7.92793 20.5344Z"
            fill="white" />
        <path
            d="M7.30884 21.0539C7.26835 21.0879 7.23184 21.112 7.19929 21.1263C7.16696 21.1404 7.1377 21.1466 7.11152 21.145C7.08556 21.1432 7.06189 21.1354 7.0405 21.1217C7.01934 21.1078 6.99957 21.0899 6.98119 21.068L6.71887 20.7554L6.8143 20.6753L7.08 20.9919C7.09681 21.012 7.11397 21.0242 7.13147 21.0285C7.14897 21.0328 7.16734 21.0308 7.18657 21.0224C7.20585 21.0136 7.22641 21 7.24826 20.9817C7.27054 20.963 7.28695 20.9454 7.29748 20.9288C7.30824 20.912 7.31247 20.8951 7.31018 20.878C7.30789 20.8609 7.29842 20.8425 7.28178 20.8226L7.01608 20.506L7.11151 20.4259L7.37071 20.7348C7.38891 20.7565 7.40331 20.7791 7.4139 20.8026C7.42449 20.8261 7.42889 20.8509 7.4271 20.877C7.42535 20.9028 7.41521 20.9303 7.3967 20.9596C7.37818 20.9888 7.34889 21.0203 7.30884 21.0539Z"
            fill="white" />
    </g>
    <defs>
        <clipPath id="clip0_0_1">
            <rect width="11.4826" height="2.87064" fill="white"
                transform="translate(3.20001 21) rotate(-40)" />
        </clipPath>
    </defs>
</svg>