<svg width="160" height="42" viewBox="0 0 160 42" fill="none" xmlns="http://www.w3.org/2000/svg">
<g clip-path="url(#clip0_31_52)">
<path d="M0 0H9.12694L20.3204 33.5281L31.1694 0H40.2963L25.3717 41.4815H15.0394L0 0Z" fill="#1E1E1E"/>
<path d="M149.624 23.204C147.628 23.204 145.982 23.0115 144.685 22.6265C143.399 22.2314 142.391 21.6844 141.661 20.9854C140.942 20.2864 140.436 19.4658 140.142 18.5237C139.848 17.5815 139.701 16.5584 139.701 15.4541V7.9626C139.701 6.82798 139.843 5.77947 140.127 4.81707C140.42 3.84454 140.927 2.99864 141.646 2.27937C142.376 1.5601 143.384 1.00292 144.67 0.607832C145.967 0.202611 147.618 0 149.624 0C151.569 0 153.144 0.187415 154.35 0.562244C155.566 0.937074 156.492 1.46386 157.131 2.14261C157.779 2.82135 158.22 3.6166 158.453 4.52835C158.696 5.44009 158.817 6.43289 158.817 7.50672V7.85623L154.38 8.19053V7.29398C154.38 6.29106 154.218 5.52114 153.894 4.98422C153.57 4.43717 153.058 4.06234 152.359 3.85973C151.66 3.64699 150.748 3.54062 149.624 3.54062C148.51 3.54062 147.547 3.65206 146.737 3.87493C145.936 4.08767 145.318 4.47769 144.883 5.045C144.447 5.60218 144.229 6.39743 144.229 7.43074V15.91C144.229 16.9332 144.442 17.7183 144.868 18.2653C145.303 18.8023 145.921 19.172 146.722 19.3746C147.532 19.5671 148.499 19.6634 149.624 19.6634C150.769 19.6634 151.721 19.5671 152.481 19.3746C153.241 19.172 153.808 18.8023 154.183 18.2653C154.568 17.7183 154.76 16.9332 154.76 15.91V14.2689H150.232V11.3057H158.833V22.8089H156.447L155.733 20.2256C155.672 20.408 155.545 20.6612 155.353 20.9854C155.16 21.3096 154.846 21.6439 154.411 21.9883C153.975 22.3226 153.372 22.6063 152.602 22.8393C151.832 23.0824 150.84 23.204 149.624 23.204Z" fill="#1E1E1E"/>
<path d="M112.215 0.379919H115.604L127.669 16.3051L127.259 16.4419V0.379919H131.271V22.8089H127.882L115.862 7.12685L116.272 6.99009V22.8089H112.215V0.379919Z" fill="#1E1E1E"/>
<path d="M91.1719 19.4354H95.2595V3.73819H91.1719V0.379919H103.815V3.73819H99.7575V19.4354H103.815V22.8089H91.1719V19.4354Z" fill="#1E1E1E"/>
<path d="M74.3381 22.8089V3.81417H68.0926V0.379919H85.0815V3.81417H78.836V22.8089H74.3381Z" fill="#1E1E1E"/>
<path d="M52.3679 23.204C50.3519 23.204 48.6956 22.9963 47.3989 22.5809C46.1021 22.1656 45.0942 21.5932 44.3749 20.8638C43.6556 20.1344 43.1491 19.2835 42.8553 18.3109C42.5717 17.3384 42.4298 16.3 42.4298 15.1958V8.17534C42.4298 7.04072 42.5717 5.98208 42.8553 4.99942C43.139 4.00662 43.6404 3.1354 44.3597 2.38574C45.079 1.63608 46.087 1.05358 47.3837 0.638223C48.6804 0.212741 50.3418 0 52.3679 0C54.3028 0 55.8933 0.222872 57.1394 0.668615C58.3955 1.11436 59.3731 1.72726 60.0722 2.50731C60.7813 3.27723 61.2726 4.16871 61.5461 5.18177C61.8298 6.19482 61.9716 7.26865 61.9716 8.40327V14.9527C61.9716 16.0569 61.8298 17.1054 61.5461 18.0982C61.2625 19.0809 60.7661 19.9571 60.057 20.7271C59.358 21.497 58.3854 22.1048 57.1394 22.5506C55.8933 22.9862 54.3028 23.204 52.3679 23.204ZM52.3679 19.6634C53.5025 19.6634 54.4446 19.5469 55.1943 19.3139C55.944 19.0809 56.5062 18.6756 56.881 18.0982C57.2559 17.5208 57.4433 16.7204 57.4433 15.6973V7.56751C57.4433 6.56458 57.2559 5.76934 56.881 5.18177C56.5062 4.5942 55.9389 4.17378 55.1791 3.92051C54.4294 3.66725 53.4924 3.54062 52.3679 3.54062C51.2535 3.54062 50.2911 3.66219 49.4807 3.90532C48.6702 4.14845 48.0472 4.5638 47.6116 5.15137C47.176 5.73895 46.9582 6.54432 46.9582 7.56751V15.6973C46.9582 16.7204 47.1709 17.5208 47.5964 18.0982C48.032 18.6756 48.655 19.0809 49.4655 19.3139C50.2759 19.5469 51.2434 19.6634 52.3679 19.6634Z" fill="#1E1E1E"/>
<path d="M36.5885 26.0741L30.8148 41.4815H160V26.0741H36.5885Z" fill="#1E1E1E"/>
<path d="M150.752 39.544V38.2757C151.185 38.2757 151.526 38.2134 151.775 38.0887C152.028 37.964 152.208 37.7575 152.313 37.4692C152.422 37.1808 152.476 36.7912 152.476 36.3003V32.6182C152.476 32.1234 152.422 31.7357 152.313 31.4551C152.208 31.1707 152.03 30.9681 151.781 30.8473C151.532 30.7265 151.189 30.6661 150.752 30.6661V29.3979C151.52 29.3979 152.149 29.5186 152.64 29.7602C153.135 30.0018 153.501 30.3739 153.739 30.8765C153.98 31.3753 154.101 32.0123 154.101 32.7877V36.0957C154.101 36.8789 153.98 37.5257 153.739 38.0361C153.501 38.5465 153.135 38.9245 152.64 39.1699C152.145 39.4193 151.516 39.544 150.752 39.544Z" fill="white"/>
<path d="M139.1 29.9823H140.404L145.044 36.1074L144.886 36.16V29.9823H146.429V38.6089H145.126L140.503 32.5773L140.661 32.5247V38.6089H139.1V29.9823Z" fill="white"/>
<path d="M130.049 37.3114H131.622V31.274H130.049V29.9823H134.912V31.274H133.352V37.3114H134.912V38.6089H130.049V37.3114Z" fill="white"/>
<path d="M120.519 29.9823H126.171V31.2915H122.249V33.5826H125.727V34.8333H122.249V37.2997H126.235V38.6089H120.519V29.9823Z" fill="white"/>
<path d="M108.873 29.9823H110.615V33.6527H114.402V29.9823H116.144V38.6089H114.402V35.0145H110.615V38.6089H108.873V29.9823Z" fill="white"/>
<path d="M101.254 38.6089V31.3032H98.8519V29.9823H105.386V31.3032H102.984V38.6089H101.254Z" fill="white"/>
<path d="M88.4332 38.6089L91.2736 29.9823H93.5764L96.4519 38.6089H94.6108L92.3899 31.0227H92.5419L90.245 38.6089H88.4332ZM90.0755 36.9666L90.4203 35.6223H94.4764L94.8095 36.9666H90.0755Z" fill="white"/>
<path d="M79.3819 29.9823H82.7659C83.7127 29.9823 84.418 30.1986 84.8817 30.6311C85.3453 31.0597 85.5772 31.761 85.5772 32.7351C85.5772 33.4014 85.4856 33.9488 85.3025 34.3774C85.1193 34.8021 84.8096 35.1177 84.3732 35.3243C83.9407 35.5308 83.3484 35.634 82.5964 35.634H81.1178V38.6089H79.3819V29.9823ZM82.8711 34.3657C83.1634 34.3657 83.3874 34.3093 83.5433 34.1963C83.6991 34.0833 83.8063 33.9118 83.8647 33.6819C83.9231 33.4521 83.9524 33.1657 83.9524 32.8228C83.9524 32.5189 83.9231 32.2461 83.8647 32.0046C83.8102 31.763 83.7088 31.5721 83.5608 31.4318C83.4127 31.2876 83.2023 31.2155 82.9296 31.2155H81.1178V34.3657H82.8711Z" fill="white"/>
<path d="M75.1586 39.544C74.3949 39.544 73.7637 39.4212 73.265 39.1758C72.7701 38.9342 72.4019 38.564 72.1603 38.0653C71.9227 37.5627 71.8038 36.9256 71.8038 36.1541V32.8461C71.8038 32.1526 71.9051 31.5486 72.1077 31.0343C72.3142 30.5161 72.661 30.1148 73.1481 29.8304C73.6351 29.542 74.3053 29.3979 75.1586 29.3979V30.6661C74.7573 30.6661 74.43 30.7226 74.1767 30.8356C73.9234 30.9447 73.7364 31.1415 73.6156 31.4259C73.4948 31.7103 73.4344 32.1175 73.4344 32.6474V36.3295C73.4344 36.8555 73.4929 37.2588 73.6098 37.5393C73.7306 37.8198 73.9176 38.0147 74.1709 38.1238C74.4241 38.229 74.7534 38.2816 75.1586 38.2816V39.544Z" fill="white"/>
<path d="M64.9618 38.7608C64.3734 38.7608 63.7812 38.6907 63.185 38.5504C62.5889 38.4102 62.0746 38.2192 61.6421 37.9777L62.2382 36.7094C62.5694 36.8847 62.9649 37.0445 63.4247 37.1887C63.8883 37.3289 64.3871 37.3991 64.9209 37.3991C65.2754 37.3991 65.5423 37.3484 65.7216 37.2471C65.9047 37.1458 66.0274 37.0055 66.0898 36.8263C66.156 36.6432 66.1891 36.4347 66.1891 36.2009C66.1891 36.0412 66.1618 35.8951 66.1073 35.7626C66.0527 35.6262 65.9398 35.5015 65.7683 35.3885C65.6008 35.2716 65.3436 35.1625 64.9968 35.0612L63.524 34.6287C63.0564 34.4885 62.6921 34.3015 62.4311 34.0677C62.1739 33.83 61.9927 33.5534 61.8875 33.2377C61.7862 32.9221 61.7356 32.5812 61.7356 32.215C61.7356 31.6773 61.8661 31.2331 62.1272 30.8824C62.3921 30.5317 62.7506 30.2707 63.2026 30.0992C63.6584 29.9239 64.1689 29.8362 64.7338 29.8362C65.3027 29.8362 65.8268 29.8908 66.306 29.9999C66.7853 30.109 67.2236 30.2785 67.621 30.5083L67.1301 31.7299C66.8106 31.5779 66.4619 31.4513 66.0839 31.35C65.706 31.2487 65.3066 31.198 64.8858 31.198C64.4455 31.198 64.0948 31.2662 63.8338 31.4026C63.5727 31.535 63.4422 31.7864 63.4422 32.1565C63.4422 32.4526 63.5182 32.6806 63.6701 32.8403C63.826 33.0001 64.1221 33.1462 64.5585 33.2787L66.0255 33.717C66.606 33.8923 67.0424 34.1709 67.3346 34.5528C67.6269 34.9346 67.773 35.4645 67.773 36.1425C67.773 36.6295 67.6756 37.0718 67.4808 37.4692C67.2859 37.8627 66.982 38.1764 66.569 38.4102C66.156 38.6439 65.6203 38.7608 64.9618 38.7608Z" fill="white"/>
<path d="M54.6366 38.7608C53.869 38.7608 53.2456 38.6868 52.7664 38.5387C52.291 38.3868 51.9267 38.1764 51.6735 37.9075C51.4202 37.6387 51.2468 37.3231 51.1533 36.9607C51.0598 36.5984 51.013 36.2048 51.013 35.7801V32.8988C51.013 32.4624 51.0578 32.0591 51.1474 31.6889C51.241 31.3149 51.4124 30.9895 51.6618 30.7129C51.915 30.4363 52.2813 30.222 52.7605 30.07C53.2398 29.9142 53.8652 29.8362 54.6366 29.8362C55.373 29.8362 55.9653 29.9122 56.4134 30.0642C56.8653 30.2122 57.2082 30.4226 57.442 30.6954C57.6758 30.9681 57.8336 31.2896 57.9154 31.6597C57.9972 32.026 58.0382 32.4273 58.0382 32.8637V32.9689L56.3374 33.1676V32.7293C56.3374 32.324 56.2867 32.0123 56.1854 31.7941C56.0841 31.5721 55.9107 31.4181 55.6653 31.3324C55.4198 31.2428 55.0769 31.198 54.6366 31.198C54.208 31.198 53.8535 31.2409 53.5729 31.3266C53.2963 31.4084 53.0898 31.5584 52.9534 31.7766C52.817 31.9909 52.7488 32.2968 52.7488 32.6942V35.9555C52.7488 36.349 52.817 36.651 52.9534 36.8614C53.0898 37.0679 53.2963 37.2101 53.5729 37.288C53.8535 37.362 54.21 37.3991 54.6425 37.3991C55.0828 37.3991 55.4256 37.362 55.6711 37.288C55.9166 37.2101 56.088 37.0659 56.1854 36.8555C56.2867 36.6412 56.3374 36.3295 56.3374 35.9204V35.6457H58.0382V35.8035C58.0382 36.2282 57.9992 36.6198 57.9213 36.9782C57.8433 37.3367 57.6894 37.6504 57.4595 37.9192C57.2297 38.1842 56.8887 38.3907 56.4367 38.5387C55.9848 38.6868 55.3847 38.7608 54.6366 38.7608Z" fill="white"/>
<path d="M43.3764 38.7608C42.64 38.7608 42.0341 38.6887 41.5587 38.5445C41.0873 38.4003 40.719 38.1977 40.4541 37.9367C40.193 37.6756 40.0099 37.3698 39.9047 37.0191C39.8034 36.6684 39.7528 36.2866 39.7528 35.8736V29.9764H41.4886V35.9495C41.4886 36.3275 41.5626 36.6217 41.7107 36.8321C41.8587 37.0425 42.073 37.1905 42.3536 37.2762C42.638 37.3581 42.9789 37.399 43.3764 37.399C43.7816 37.399 44.1147 37.3561 44.3758 37.2704C44.6407 37.1847 44.8375 37.0366 44.9661 36.8262C45.0947 36.6158 45.1589 36.3236 45.1589 35.9495V29.9764H46.8948V35.8034C46.8948 36.2125 46.8461 36.5963 46.7487 36.9548C46.6513 37.3133 46.4759 37.6289 46.2227 37.9016C45.9733 38.1705 45.6187 38.3809 45.1589 38.5328C44.6992 38.6848 44.105 38.7608 43.3764 38.7608Z" fill="white"/>
</g>
<defs>
<clipPath id="clip0_31_52">
<rect width="160" height="41.4815" fill="white"/>
</clipPath>
</defs>
</svg>
