<svg width="121" height="121" viewBox="0 0 121 121" fill="none" xmlns="http://www.w3.org/2000/svg">
    <g clip-path="url(#clip0_65_1998)">
        <path
            d="M0 96L5.44533 90.5547L32.1271 103.88L18.5963 77.4037L24.0416 71.9584L39.8861 105.611L33.7215 111.776L0 96Z"
            fill="#909090" />
        <path
            d="M103.113 20.5752C101.922 21.7659 100.825 22.6332 99.8218 23.1772C98.8185 23.709 97.8907 23.984 97.0385 24.0022C96.1923 24.0143 95.4005 23.8269 94.6632 23.4401C93.9258 23.0532 93.2277 22.5304 92.5689 21.8716L88.0993 17.402C87.4223 16.7251 86.8814 16.0149 86.4764 15.2715C86.0715 14.516 85.869 13.7091 85.869 12.8508C85.8751 11.9865 86.144 11.0527 86.6759 10.0494C87.2078 9.03398 88.0721 7.92791 89.2688 6.73118C90.4293 5.57072 91.481 4.74268 92.4238 4.24706C93.3728 3.7454 94.2401 3.50666 95.0258 3.53084C95.8176 3.54897 96.555 3.76051 97.238 4.16546C97.927 4.56437 98.5918 5.08417 99.2325 5.72484L99.441 5.93336L96.9932 8.78013L96.4583 8.24523C95.8599 7.64686 95.3038 7.28422 94.7901 7.15729C94.2703 7.02432 93.7414 7.10591 93.2035 7.40208C92.6596 7.69219 92.0521 8.1727 91.3812 8.84359C90.7164 9.50844 90.2087 10.1491 89.8581 10.7656C89.5076 11.37 89.3716 11.9714 89.4501 12.5698C89.5227 13.1621 89.8672 13.7665 90.4837 14.383L95.5426 19.4419C96.153 20.0524 96.7484 20.3938 97.3286 20.4664C97.9088 20.5268 98.4981 20.3787 99.0965 20.0221C99.6949 19.6534 100.33 19.1337 101 18.4628C101.683 17.7798 102.194 17.1542 102.533 16.5861C102.865 16.0119 102.983 15.4528 102.886 14.9088C102.789 14.3528 102.436 13.7695 101.825 13.1591L100.846 12.1799L98.1446 14.8816L96.3767 13.1137L101.508 7.98231L108.371 14.8454L106.948 16.2688L104.98 15.1536C105.053 15.2987 105.129 15.5253 105.207 15.8336C105.286 16.1418 105.298 16.5287 105.243 16.994C105.183 17.4534 104.993 17.9823 104.672 18.5806C104.358 19.185 103.838 19.8499 103.113 20.5752Z"
            fill="#909090" />
        <path
            d="M67.1765 29.2768L69.1983 27.255L85.8981 29.5578L85.7349 29.8842L76.152 20.3013L78.5454 17.9079L91.9271 31.2895L89.9053 33.3112L73.3778 31.1263L73.5409 30.7999L82.9788 40.2378L80.5581 42.6584L67.1765 29.2768Z"
            fill="#909090" />
        <path
            d="M65.9906 53.2005L68.4294 50.7617L59.0641 41.3964L56.6253 43.8352L54.6217 41.8316L62.1647 34.2886L64.1683 36.2922L61.7477 38.7129L71.113 48.0782L73.5337 45.6575L75.5463 47.6702L68.0033 55.2132L65.9906 53.2005Z"
            fill="#909090" />
        <path
            d="M57.96 65.2566L46.6273 53.924L42.9011 57.6501L40.8522 55.6012L50.9881 45.4653L53.0371 47.5142L49.3109 51.2404L60.6435 62.5731L57.96 65.2566Z"
            fill="#909090" />
        <path
            d="M45.0878 78.6002C43.885 79.803 42.7729 80.6673 41.7515 81.1931C40.73 81.719 39.7872 81.9789 38.9228 81.9728C38.0585 81.9668 37.2486 81.7613 36.4931 81.3563C35.7437 80.9453 35.0395 80.4104 34.3807 79.7516L30.1922 75.5631C29.5152 74.8861 28.9682 74.1699 28.5512 73.4144C28.1281 72.6528 27.9075 71.8339 27.8894 70.9575C27.8712 70.0811 28.1251 69.1322 28.6509 68.1107C29.1707 67.0832 30.035 65.9651 31.2438 64.7562C32.3982 63.6018 33.4801 62.7859 34.4895 62.3084C35.5049 61.8248 36.4538 61.6073 37.3363 61.6556C38.2187 61.6919 39.0437 61.9306 39.8113 62.3718C40.585 62.807 41.3103 63.3631 41.9872 64.04L45.8947 67.9475C46.5535 68.6063 47.0945 69.3165 47.5175 70.0781C47.9346 70.8336 48.1612 71.6525 48.1975 72.535C48.2398 73.4114 48.0222 74.3542 47.5447 75.3636C47.0612 76.3669 46.2422 77.4458 45.0878 78.6002ZM42.9754 76.4878C43.6523 75.8109 44.1449 75.1793 44.4532 74.593C44.7614 74.0067 44.8551 73.4295 44.7342 72.8614C44.6134 72.2932 44.2477 71.7039 43.6372 71.0935L38.7869 66.2431C38.1885 65.6447 37.6022 65.2821 37.028 65.1551C36.4538 65.0282 35.8645 65.1159 35.2601 65.4181C34.6618 65.7142 34.0271 66.1977 33.3562 66.8686C32.6914 67.5335 32.1897 68.1802 31.8513 68.8088C31.5128 69.4374 31.3889 70.0569 31.4795 70.6674C31.5702 71.2778 31.9208 71.8883 32.5312 72.4987L37.3816 77.3491C37.9921 77.9595 38.5965 78.3101 39.1948 78.4008C39.7992 78.4854 40.4127 78.3554 41.0353 78.0109C41.6578 77.6664 42.3045 77.1587 42.9754 76.4878Z"
            fill="#909090" />
        <path d="M37.3858 89.7269L43.1336 102.364L120.208 25.2893L111.016 16.0969L37.3858 89.7269Z"
            fill="#909090" />
        <path
            d="M113.535 29.6507L112.778 28.8941C113.036 28.636 113.202 28.3954 113.277 28.1723C113.354 27.9468 113.337 27.7166 113.228 27.4818C113.121 27.2447 112.921 26.9797 112.628 26.6868L110.431 24.49C110.136 24.1948 109.872 23.996 109.64 23.8937C109.407 23.7868 109.181 23.7717 108.96 23.8484C108.739 23.9251 108.498 24.0937 108.238 24.354L107.481 23.5974C107.939 23.1394 108.387 22.836 108.824 22.6873C109.263 22.5361 109.704 22.5396 110.145 22.6977C110.587 22.8511 111.039 23.1592 111.502 23.6218L113.476 25.5954C113.943 26.0626 114.257 26.5206 114.417 26.9693C114.58 27.4156 114.587 27.8596 114.438 28.3013C114.292 28.7453 113.99 29.1951 113.535 29.6507Z"
            fill="white" />
        <path
            d="M100.878 30.8978L101.656 30.1202L108.079 31.0059L108.016 31.1315L104.331 27.4457L105.251 26.5252L110.398 31.6719L109.62 32.4495L103.264 31.6092L103.326 31.4836L106.956 35.1136L106.025 36.0446L100.878 30.8978Z"
            fill="white" />
        <path
            d="M99.8511 40.6705L100.789 39.7325L97.187 36.1304L96.249 37.0684L95.4784 36.2978L98.3796 33.3966L99.1502 34.1672L98.2192 35.0983L101.821 38.7003L102.752 37.7693L103.526 38.5434L100.625 41.4446L99.8511 40.6705Z"
            fill="white" />
        <path
            d="M89.7924 41.9838L93.1643 38.6119L93.9453 39.393L91.6056 41.7328L92.9725 43.0997L95.0472 41.0249L95.7934 41.7711L93.7187 43.8459L95.1902 45.3174L97.5683 42.9393L98.3494 43.7203L94.9391 47.1306L89.7924 41.9838Z"
            fill="white" />
        <path
            d="M82.844 48.9322L83.8831 47.8931L86.0729 50.0829L88.3325 47.8233L86.1427 45.6335L87.1818 44.5944L92.3286 49.7412L91.2894 50.7803L89.145 48.6358L86.8854 50.8954L89.0299 53.0398L87.9908 54.079L82.844 48.9322Z"
            fill="white" />
        <path
            d="M83.4452 58.6246L79.0864 54.2659L77.6533 55.6991L76.8652 54.911L80.7637 51.0126L81.5517 51.8006L80.1186 53.2338L84.4773 57.5925L83.4452 58.6246Z"
            fill="white" />
        <path
            d="M75.7959 66.2738L72.3438 59.4323L73.7177 58.0585L80.5801 61.4897L79.4817 62.5881L73.6305 59.387L73.7212 59.2964L76.8769 65.1928L75.7959 66.2738ZM75.7959 64.3141L75.1997 63.3064L77.6196 60.8864L78.6204 61.4897L75.7959 64.3141Z"
            fill="white" />
        <path
            d="M65.249 66.5272L67.268 64.5082C67.8329 63.9433 68.3827 63.6516 68.9173 63.633C69.4497 63.612 70.0064 63.8922 70.5876 64.4733C70.9851 64.8708 71.2571 65.2521 71.4035 65.6171C71.5477 65.9797 71.5511 66.3528 71.414 66.7364C71.2792 67.1176 70.9874 67.5326 70.5388 67.9812L69.6566 68.8634L71.4314 70.6383L70.3958 71.6739L65.249 66.5272ZM69.946 67.0607C70.1203 66.8863 70.2203 66.7189 70.2459 66.5585C70.2714 66.3981 70.2331 66.2319 70.1308 66.0599C70.0285 65.8879 69.8751 65.6996 69.6705 65.495C69.4892 65.3137 69.309 65.1684 69.13 65.0591C68.9534 64.9476 68.779 64.8941 68.607 64.8987C68.4326 64.9011 68.2641 64.9836 68.1014 65.1463L67.0204 66.2273L68.8999 68.1068L69.946 67.0607Z"
            fill="white" />
        <path
            d="M68.4339 74.7516C67.9783 75.2072 67.5285 75.5106 67.0845 75.6617C66.6451 75.8128 66.2046 75.8116 65.7629 75.6582C65.3212 75.5001 64.8703 75.1909 64.41 74.7307L62.4363 72.757C62.0226 72.3432 61.7227 71.9225 61.5367 71.4947C61.3507 71.0624 61.3182 70.616 61.4391 70.1557C61.5576 69.6931 61.8715 69.2073 62.3806 68.6982L63.1372 69.4549C62.8978 69.6943 62.7362 69.9233 62.6525 70.1418C62.5665 70.358 62.5723 70.587 62.67 70.8287C62.7676 71.0705 62.9745 71.3494 63.2907 71.6656L65.4874 73.8624C65.8013 74.1762 66.0767 74.382 66.3139 74.4796C66.5533 74.5749 66.7811 74.5795 66.9973 74.4935C67.2112 74.4052 67.439 74.2401 67.6808 73.9984L68.4339 74.7516Z"
            fill="white" />
        <path
            d="M61.8831 80.3679C61.5321 80.719 61.1369 81.0305 60.6975 81.3024C60.2582 81.5744 59.8374 81.7674 59.4352 81.8813L59.0342 80.7689C59.3364 80.676 59.6677 80.5353 60.028 80.347C60.3883 80.1541 60.7277 79.8984 61.0462 79.5799C61.2578 79.3683 61.3868 79.1789 61.4333 79.0115C61.4821 78.8418 61.4716 78.6849 61.4019 78.5408C61.3322 78.392 61.2275 78.2479 61.0881 78.1084C60.9928 78.0131 60.8893 77.9422 60.7777 77.8957C60.6638 77.8469 60.522 77.8399 60.3523 77.8747C60.1826 77.905 59.9641 77.9933 59.6968 78.1398L58.56 78.7604C58.1974 78.9557 57.8684 79.0615 57.5732 79.0778C57.278 79.0894 57.0048 79.0324 56.7538 78.9069C56.505 78.779 56.2714 78.6059 56.0529 78.3873C55.7321 78.0665 55.5449 77.7236 55.4915 77.3587C55.4403 76.9914 55.4984 76.6218 55.6658 76.2498C55.8332 75.8732 56.0854 75.5164 56.4225 75.1793C56.7619 74.8399 57.1071 74.5598 57.4581 74.339C57.8091 74.1181 58.1718 73.9577 58.5461 73.8578L58.9819 74.8794C58.7006 74.9794 58.417 75.1119 58.1311 75.277C57.8452 75.442 57.5767 75.6501 57.3256 75.9011C57.0629 76.1638 56.8944 76.4137 56.82 76.6508C56.7433 76.8856 56.8154 77.1134 57.0362 77.3343C57.2129 77.5109 57.3942 77.6016 57.5802 77.6063C57.7685 77.6086 58.0323 77.5191 58.3717 77.3378L59.5085 76.724C59.9594 76.4823 60.386 76.3881 60.7882 76.4416C61.1903 76.4951 61.5937 76.724 61.9982 77.1285C62.2887 77.4191 62.4945 77.7411 62.6154 78.0944C62.7339 78.4454 62.7397 78.8139 62.6328 79.1998C62.5259 79.5857 62.276 79.9751 61.8831 80.3679Z"
            fill="white" />
        <path
            d="M55.7229 86.5282C55.2649 86.9861 54.8488 87.3139 54.4745 87.5115C54.1003 87.7044 53.7574 87.7963 53.4459 87.787C53.1344 87.7777 52.8426 87.6928 52.5706 87.5324C52.2987 87.372 52.036 87.1651 51.7826 86.9117L50.0635 85.1927C49.8031 84.9323 49.5893 84.665 49.4219 84.3906C49.2545 84.1117 49.1627 83.8153 49.1464 83.5015C49.1325 83.1853 49.2231 82.8389 49.4184 82.4624C49.6114 82.0834 49.938 81.6638 50.3983 81.2036C50.8376 80.7642 51.2363 80.4562 51.5943 80.2795C51.9523 80.0982 52.2824 80.0191 52.5846 80.0424C52.8868 80.0656 53.1727 80.1633 53.4424 80.3353C53.7097 80.505 53.9736 80.72 54.2339 80.9804L54.2967 81.0432L53.4005 82.1764L53.139 81.9149C52.8973 81.6731 52.6811 81.5174 52.4904 81.4476C52.2975 81.3756 52.1022 81.3872 51.9046 81.4825C51.7047 81.5755 51.4734 81.7533 51.2107 82.016C50.955 82.2717 50.769 82.5088 50.6528 82.7274C50.5366 82.9412 50.5029 83.1539 50.5517 83.3655C50.5982 83.5747 50.74 83.7979 50.9771 84.035L52.9228 85.9807C53.1576 86.2155 53.3785 86.355 53.5853 86.3991C53.7899 86.441 53.998 86.4026 54.2095 86.2841C54.4211 86.1609 54.6558 85.9702 54.9139 85.7122C55.1766 85.4495 55.3591 85.2229 55.4613 85.0323C55.5613 84.8393 55.5776 84.651 55.5102 84.4674C55.4427 84.2791 55.287 84.0629 55.0429 83.8188L54.879 83.6549L55.8937 82.6402L55.9879 82.7343C56.2413 82.9877 56.4516 83.2446 56.619 83.505C56.7864 83.7653 56.8817 84.0443 56.9049 84.3418C56.9259 84.6371 56.8457 84.9637 56.6643 85.3217C56.483 85.6797 56.1692 86.0818 55.7229 86.5282Z"
            fill="white" />
        <path
            d="M49.0048 93.2462C48.5654 93.6856 48.1609 94.0041 47.7913 94.2017C47.424 94.3969 47.0835 94.4957 46.7696 94.4981C46.4581 94.4981 46.1664 94.4248 45.8944 94.2784C45.6247 94.1296 45.3667 93.932 45.1203 93.6856L41.6019 90.1672L42.6376 89.1316L46.2012 92.6953C46.4267 92.9208 46.6464 93.0521 46.8603 93.0893C47.0742 93.1265 47.2903 93.087 47.5089 92.9708C47.7274 92.8499 47.9552 92.6709 48.1923 92.4338C48.4341 92.192 48.6073 91.9677 48.7119 91.7608C48.8188 91.5516 48.8479 91.3458 48.799 91.1436C48.7502 90.9413 48.6142 90.7286 48.3911 90.5055L44.8274 86.9418L45.863 85.9062L49.3395 89.3827C49.5836 89.6268 49.7835 89.8848 49.9393 90.1568C50.095 90.4288 50.1787 90.7217 50.1903 91.0355C50.202 91.3447 50.116 91.6817 49.9323 92.0467C49.7487 92.4117 49.4395 92.8115 49.0048 93.2462Z"
            fill="white" />
    </g>
    <defs>
        <clipPath id="clip0_65_1998">
            <rect width="135" height="35" fill="white" transform="translate(0 96) rotate(-45)" />
        </clipPath>
    </defs>
</svg>