<svg width="23" height="23" viewBox="0 0 23 23" fill="none" xmlns="http://www.w3.org/2000/svg">
    <g clip-path="url(#clip0_130_508)">
        <path
            d="M22.1454 20.4994C22.0172 20.3073 18.9198 15.7891 11.4375 15.7891C3.95527 15.7891 0.85791 20.3073 0.729736 20.4994C0.310351 21.1283 0.48125 21.9759 1.10879 22.3953C1.73633 22.8133 2.58535 22.6438 3.00474 22.0163C3.02866 21.9814 5.40278 18.5234 11.4375 18.5234C17.3896 18.5234 19.7767 21.8826 19.8704 22.0163C20.1346 22.4114 20.5673 22.625 21.0106 22.625C21.2697 22.625 21.5339 22.5501 21.7663 22.3953C22.3938 21.9763 22.5647 21.1283 22.1454 20.4994Z"
            fill="#394240" />
        <path
            d="M7.33594 14.4219C8.09165 14.4219 8.70312 13.8104 8.70312 13.0547V6.21875C8.70312 4.70869 9.92881 3.48438 11.4375 3.48438C12.9489 3.48438 14.1719 4.70869 14.1719 6.21875V13.0547C14.1719 13.8104 14.7833 14.4219 15.5391 14.4219C16.2948 14.4219 16.9062 13.8104 16.9062 13.0547V6.21875C16.9062 3.19727 14.4576 0.75 11.4375 0.75C8.41738 0.75 5.96875 3.19727 5.96875 6.21875V13.0547C5.96875 13.8104 6.58022 14.4219 7.33594 14.4219Z"
            fill="#394240" />
    </g>
    <defs>
        <clipPath id="clip0_130_508">
            <rect width="21.875" height="21.875" fill="white" transform="translate(0.5 0.75)" />
        </clipPath>
    </defs>
</svg>